<?xml version="1.0" encoding="UTF-8"?>
<svg width="350px" height="200px" viewBox="0 0 350 200" version="1.1" xmlns="http://www.w3.org/2000/svg" xmlns:xlink="http://www.w3.org/1999/xlink">
    <!-- Generator: Sketch 47.1 (45422) - http://www.bohemiancoding.com/sketch -->
    <title>Artboard</title>
    <desc>Created with Sketch.</desc>
    <defs>
        <linearGradient x1="-88.2518333%" y1="-2.14971879%" x2="471.083%" y2="236.232453%" id="linearGradient-1">
            <stop stop-color="#CCFBFF" offset="0%"></stop>
            <stop stop-color="#C9E4FF" offset="100%"></stop>
        </linearGradient>
        <linearGradient x1="2.86563895%" y1="36.4805997%" x2="495.112945%" y2="235.289621%" id="linearGradient-2">
            <stop stop-color="#CCFBFF" offset="0%"></stop>
            <stop stop-color="#C9E4FF" offset="100%"></stop>
        </linearGradient>
        <linearGradient x1="-111.698939%" y1="-321.301695%" x2="253.580952%" y2="539.39209%" id="linearGradient-3">
            <stop stop-color="#CCFBFF" offset="0%"></stop>
            <stop stop-color="#C9E4FF" offset="100%"></stop>
        </linearGradient>
        <linearGradient x1="-299.208208%" y1="-237.250774%" x2="262.034153%" y2="234.398762%" id="linearGradient-4">
            <stop stop-color="#CCFBFF" offset="0%"></stop>
            <stop stop-color="#C9E4FF" offset="100%"></stop>
        </linearGradient>
        <linearGradient x1="-10.7115685%" y1="24.786548%" x2="226.450046%" y2="124.505839%" id="linearGradient-5">
            <stop stop-color="#00C8D7" offset="0%"></stop>
            <stop stop-color="#0A84FF" offset="100%"></stop>
        </linearGradient>
        <linearGradient x1="-75.0715666%" y1="-182.656554%" x2="71.8972428%" y2="102.629401%" id="linearGradient-6">
            <stop stop-color="#CCFBFF" offset="0%"></stop>
            <stop stop-color="#C9E4FF" offset="100%"></stop>
        </linearGradient>
        <linearGradient x1="-4648.31475%" y1="-1164.43655%" x2="853.340984%" y2="252.773551%" id="linearGradient-7">
            <stop stop-color="#CCFBFF" offset="0%"></stop>
            <stop stop-color="#C9E4FF" offset="100%"></stop>
        </linearGradient>
        <linearGradient x1="-2147.36747%" y1="-504.853943%" x2="417.621729%" y2="140.183867%" id="linearGradient-8">
            <stop stop-color="#CCFBFF" offset="0%"></stop>
            <stop stop-color="#C9E4FF" offset="100%"></stop>
        </linearGradient>
        <linearGradient x1="-4269.02%" y1="-1601.91952%" x2="894.072308%" y2="383.028632%" id="linearGradient-9">
            <stop stop-color="#CCFBFF" offset="0%"></stop>
            <stop stop-color="#C9E4FF" offset="100%"></stop>
        </linearGradient>
        <linearGradient x1="-1754.07465%" y1="-850.787234%" x2="394.852151%" y2="229.657447%" id="linearGradient-10">
            <stop stop-color="#CCFBFF" offset="0%"></stop>
            <stop stop-color="#C9E4FF" offset="100%"></stop>
        </linearGradient>
        <linearGradient x1="-2363.18221%" y1="-1750.63134%" x2="652.901468%" y2="523.140299%" id="linearGradient-11">
            <stop stop-color="#CCFBFF" offset="0%"></stop>
            <stop stop-color="#C9E4FF" offset="100%"></stop>
        </linearGradient>
        <linearGradient x1="-987.95088%" y1="-834.584559%" x2="305.026207%" y2="285.582353%" id="linearGradient-12">
            <stop stop-color="#CCFBFF" offset="0%"></stop>
            <stop stop-color="#C9E4FF" offset="100%"></stop>
        </linearGradient>
        <linearGradient x1="-63.6420989%" y1="-219.594316%" x2="69.1776439%" y2="108.555062%" id="linearGradient-13">
            <stop stop-color="#00C8D7" offset="0%"></stop>
            <stop stop-color="#0A84FF" offset="100%"></stop>
        </linearGradient>
        <linearGradient x1="21.0930463%" y1="-148.666245%" x2="72.1002376%" y2="241.09789%" id="linearGradient-14">
            <stop stop-color="#00C8D7" offset="0%"></stop>
            <stop stop-color="#0A84FF" offset="100%"></stop>
        </linearGradient>
        <linearGradient x1="-1887.89286%" y1="-148.79387%" x2="6448.47619%" y2="714.963481%" id="linearGradient-15">
            <stop stop-color="#00C8D7" offset="0%"></stop>
            <stop stop-color="#0A84FF" offset="100%"></stop>
        </linearGradient>
        <linearGradient x1="-44.7051541%" y1="-686.193171%" x2="346.725585%" y2="2427.21218%" id="linearGradient-16">
            <stop stop-color="#00C8D7" offset="0%"></stop>
            <stop stop-color="#0A84FF" offset="100%"></stop>
        </linearGradient>
        <linearGradient x1="-995.928571%" y1="-56.3126753%" x2="7340.44048%" y2="807.445144%" id="linearGradient-17">
            <stop stop-color="#00C8D7" offset="0%"></stop>
            <stop stop-color="#0A84FF" offset="100%"></stop>
        </linearGradient>
        <linearGradient x1="-2.71154528%" y1="-348.963333%" x2="388.719191%" y2="2730.17333%" id="linearGradient-18">
            <stop stop-color="#00C8D7" offset="0%"></stop>
            <stop stop-color="#0A84FF" offset="100%"></stop>
        </linearGradient>
    </defs>
    <g id="Page-1" stroke="none" stroke-width="1" fill="none" fill-rule="evenodd">
        <g id="Artboard" fill-rule="nonzero">
            <g id="lockbox_nessie" transform="translate(36.000000, 29.000000)">
                <path d="M160.970037,63 C161.519351,63 162,62.5333333 162,62 C162,61.4666667 161.519351,61 160.970037,61 L107.755306,61 C107.549313,61.6 107.274657,62.2666667 107,63 L160.970037,63 Z" id="Shape" fill="#D7D7DB"></path>
                <path d="M139.471503,57 C139.202073,57 139,57.2142857 139,57.5 C139,57.7857143 139.202073,58 139.471503,58 L151.528497,58 C151.797927,58 152,57.7857143 152,57.5 C152,57.2142857 151.797927,57 151.528497,57 L139.471503,57 Z" id="Shape" fill="#D7D7DB"></path>
                <path d="M112.474576,66 C112.20339,66 112,66.2142857 112,66.5 C112,66.7857143 112.20339,67 112.474576,67 L115.525424,67 C115.79661,67 116,66.7857143 116,66.5 C116,66.2142857 115.79661,66 115.525424,66 L112.474576,66 Z" id="Shape" fill="#D7D7DB"></path>
                <path d="M106.482759,66 C106.206897,66 106,66.2142857 106,66.5 C106,66.7857143 106.206897,67 106.482759,67 L107.517241,67 C107.793103,67 108,66.7857143 108,66.5 C108,66.2142857 107.793103,66 107.517241,66 L106.482759,66 Z" id="Shape" fill="#D7D7DB"></path>
                <path d="M123.471503,66 C123.202073,66 123,66.2142857 123,66.5 C123,66.7857143 123.202073,67 123.471503,67 L135.528497,67 C135.797927,67 136,66.7857143 136,66.5 C136,66.2142857 135.797927,66 135.528497,66 L123.471503,66 Z" id="Shape" fill="#D7D7DB"></path>
                <path d="M62.5707781,98.9750929 C67.3370494,99.2522084 71.4125567,97.173842 74.3828417,94.8876389 C77.8366614,89.483886 83.2246202,83.3180655 91.4447112,76.2516195 C101.737094,67.3839226 105.881678,51.1726641 104.845532,44.3140548 L104.292921,45.7689113 C104.223844,45.976748 104.016615,46.1153057 103.809386,46.1153057 C103.74031,46.1153057 103.671233,46.1153057 103.602157,46.0460268 C103.325851,45.9074691 103.187698,45.6303536 103.325851,45.353238 L104.431074,42.6513616 C104.431074,42.6513616 104.431074,42.5820827 104.431074,42.5820827 L104.776455,41.4043417 L103.671233,41.0579473 C102.0134,37.8711187 99.8720314,34.8921268 97.3852812,32.1902504 C97.3162048,33.021597 97.2471284,33.6451069 97.178052,33.8529436 C97.1089756,34.0607802 96.9017465,34.199338 96.6945173,34.199338 C96.6254409,34.199338 96.5563645,34.199338 96.5563645,34.199338 C96.2800589,34.1300591 96.1419061,33.8529436 96.2109825,33.575828 C96.2800589,33.3679914 96.3491353,32.4673659 96.4872881,31.2896249 C96.4182117,31.220346 96.4182117,31.220346 96.3491353,31.1510672 L96.2800589,27.2714497 L92.273628,27.3407286 C88.957961,24.5695733 85.2969121,22.1448125 81.5667868,20.1357249 L79.9780297,14.3855776 L75.2117584,15.7018764 L77.6294322,16.8103385 C77.9057378,16.9488963 77.9748142,17.2260118 77.9057378,17.5031273 C77.8366614,17.710964 77.6294322,17.7802429 77.422203,17.7802429 C77.3531267,17.7802429 77.2840503,17.7802429 77.2149739,17.710964 L73.6920777,16.1175497 L73.2085429,16.2561075 C67.6133549,14.177741 62.2253961,13 57.8045068,13 C57.2518957,13 56.6992845,13 56.2157498,13.0692789 C48.2028879,13.6235099 35.0092965,23.9460634 24.5096844,34.2686169 C24.5096844,34.2686169 24.5096844,34.2686169 24.5096844,34.2686169 C21.470323,37.6632821 13.8028432,46.7388157 12.3522389,54.220935 C10.6944054,62.9500741 15.0462183,73.0647909 22.0920106,76.7365717 C30.3121016,81.0318624 48.4791935,78.7456593 54.4888399,77.8450338 C55.6631386,77.3600816 56.3539026,77.0829661 56.4229789,77.0829661 C56.9065137,76.8751295 57.5282013,77.0829661 57.8045068,77.5679183 C58.011736,78.0528705 57.8045068,78.6763804 57.3209721,78.9534959 C57.1828193,79.0227748 56.1466734,79.507727 54.3506871,80.1312369 C53.7289995,81.5168146 52.3474716,84.9114798 52.4856244,88.5832606 C52.4856244,93.2942246 54.6960691,98.4208618 62.5707781,98.9750929 Z M31.5554767,52.6275207 C31.2791711,52.7660784 31.0028656,52.9046362 30.72656,52.9046362 C30.2430252,52.9046362 29.7594904,52.6275207 29.4141085,52.2118474 C29.4141085,52.1425685 28.5161153,50.8955486 26.7892055,50.8955486 C25.0622956,50.8955486 24.1643024,52.2118474 24.1643024,52.2118474 C23.6807677,52.9046362 22.7136982,53.1124728 22.0229342,52.6967995 C21.3321703,52.2118474 21.1249411,51.241943 21.5393994,50.5491542 C21.6084758,50.4798753 22.8518509,48.6093455 25.2695248,47.9858355 C25.2004484,47.7779989 25.131372,47.5701623 25.131372,47.3623256 L25.131372,44.0369393 C25.131372,43.2055927 25.7530595,42.5820827 26.5819763,42.5820827 C27.410893,42.5820827 28.0325806,43.2055927 28.0325806,44.0369393 L28.0325806,47.2930467 C28.0325806,47.5008834 27.9635042,47.70872 27.8944278,47.8472778 C30.5884072,48.33223 31.9008587,50.3413175 31.9699351,50.4798753 C32.5225463,51.241943 32.3153171,52.2118474 31.5554767,52.6275207 Z M57.3209721,52.2118474 C56.8374373,52.9046362 55.8703678,53.1124728 55.1796038,52.6967995 C54.4888399,52.2811263 54.2816107,51.241943 54.6960691,50.5491542 C54.7651455,50.4798753 56.0085206,48.6093455 58.4261944,47.9858355 C58.357118,47.7779989 58.2880416,47.5701623 58.2880416,47.3623256 L58.2880416,44.0369393 C58.2880416,43.2055927 58.9097292,42.5820827 59.7386459,42.5820827 C60.5675627,42.5820827 61.1892502,43.2055927 61.1892502,44.0369393 L61.1892502,47.2930467 C61.1892502,47.5008834 61.1201738,47.70872 61.0510974,47.8472778 C63.7450768,48.33223 65.0575283,50.3413175 65.1266047,50.4798753 C65.6101395,51.1726641 65.4029103,52.1425685 64.64307,52.6275207 C64.3667644,52.7660784 64.0904588,52.9046362 63.8141532,52.9046362 C63.3306185,52.9046362 62.8470837,52.6275207 62.5017017,52.2118474 C62.5017017,52.1425685 61.6037086,50.8955486 59.8767987,50.8955486 C58.2189652,50.8955486 57.3209721,52.2118474 57.3209721,52.2118474 Z" id="Shape" fill="#FFFFFF"></path>
                <path d="M30.6644695,119.694394 C31.0095082,106.56962 35.2879878,94.6130199 43.361893,84.1681736 C40.6705913,84.5804702 37.6342509,84.7866184 34.3908873,84.7866184 C30.6644695,84.7866184 27.4901136,84.5117541 26.3859898,84.3743219 C19.4162084,83.4810127 15.2757442,81.0759494 10.9282567,75.6473779 C7.54687762,71.3869801 3.61343662,62.1790235 5.47664552,54.9638336 C6.71878478,50.2224231 10.2381794,45.6871609 12.9984888,42.7323689 C16.8629221,37.5099458 21.6934637,32.9746835 21.9004869,32.7685353 C22.383541,32.3562387 23.0046107,32.0813743 23.6256803,32.0126582 C29.4223302,26.3779385 45.4321252,11.8788427 55.7832857,11.1916817 C56.3353476,11.1229656 56.9564172,11.1229656 57.5084791,11.1229656 C61.993982,11.1229656 67.3075777,12.2224231 72.9662122,14.283906 L79.1769085,12.5660036 C79.3839317,12.4972875 79.5219472,12.4972875 79.7289704,12.4972875 C80.074009,12.4972875 80.4190477,12.5660036 80.7640864,12.7721519 C81.2471406,13.0470163 81.5921793,13.4593128 81.7301947,14.0090416 L83.0413417,18.8878843 C86.4917286,20.8119349 89.7350922,23.0108499 92.7024249,25.3471971 L95.9457885,25.278481 C95.9457885,25.278481 95.9457885,25.278481 96.0147963,25.278481 C96.5668582,25.278481 97.0499123,25.4846293 97.4639587,25.8282098 C97.8780052,26.1717902 98.0850284,26.721519 98.0850284,27.2712477 L98.1540361,30.2947559 C100.914346,33.1808318 103.122593,36.20434 104.847787,39.3652803 L105.123818,39.4339964 C105.675879,39.5714286 106.089926,39.9837251 106.365957,40.4647378 C106.641988,40.9457505 106.641988,41.4954792 106.503972,42.045208 L106.365957,42.5949367 C107.401073,46.0307414 106.849011,52.0777577 104.778779,58.3309222 C103.260609,62.9349005 99.7412141,71.5244123 92.6334172,77.5714286 C80.5570632,87.8788427 73.3802586,97.4303797 71.4480419,105.813743 C69.9988795,111.929476 71.5170497,116.533454 72.9662122,119.969259 C73.794305,119.625678 74.5533901,119.213382 75.3124752,118.801085 C75.7265216,118.594937 76.140568,118.320072 76.6236222,118.113924 C74.0013282,111.517179 71.8620884,100.797468 95.3247189,80.7323689 C101.742438,75.2350814 105.468856,68.0886076 107.539088,62.8661844 C107.815119,62.1103074 108.09115,61.4231465 108.298173,60.8047016 C108.436189,60.3924051 108.574204,59.9801085 108.71222,59.636528 C109.540313,57.0253165 111.886576,48.9168174 110.644436,42.6636528 C110.920467,41.2893309 110.713444,39.8462929 110.023367,38.6094033 C109.471305,37.6473779 108.71222,36.8227848 107.746112,36.20434 C106.227941,33.5931284 104.364732,31.119349 102.225493,28.7142857 L102.156485,27.2025316 C102.087477,25.5533454 101.466407,24.0415913 100.224268,22.8734177 C99.0511367,21.7739602 97.5329665,21.1555154 95.9457885,21.1555154 C95.8767808,21.1555154 95.8767808,21.1555154 95.8077731,21.1555154 L94.0825796,21.2242315 C91.7363166,19.437613 89.1830303,17.7197107 86.5607363,16.1392405 L85.6636357,12.9095841 C85.2495893,11.3291139 84.2144733,10.0235081 82.7653108,9.19891501 C81.7992025,8.64918626 80.7640864,8.37432188 79.7289704,8.37432188 C79.1769085,8.37432188 78.6248466,8.44303797 78.0727847,8.58047016 L73.1042276,9.95479204 C67.5146009,8.03074141 62.1319975,7 57.5084791,7 C57.5084791,7 57.5084791,7 57.5084791,7 C56.8184017,7 56.1283244,7 55.5072547,7.06871609 C50.6767132,7.41229656 39.9805139,10.641953 21.6244559,28.2332731 C20.7273554,28.5768535 19.8302548,29.0578662 19.1401774,29.7450271 C18.9331542,29.9511754 13.9645972,34.6238698 9.89314068,40.0524412 C5.54565326,44.7938517 2.71633605,49.39783 1.61221226,53.8643761 C-0.734050797,62.9349005 4.16549852,73.517179 7.82290857,78.0524412 C12.7914656,84.3056058 18.0360536,87.2603978 25.9719434,88.2911392 C26.1099588,88.2911392 29.6293534,88.7721519 34.5289027,88.7721519 C34.8049337,88.7721519 35.0809646,88.7721519 35.3569956,88.7721519 C29.9053844,98.1175407 26.9380517,108.356239 26.6620207,119.488246 C26.6620207,119.969259 26.7310285,120.518987 26.8000362,121 C28.2491987,120.793852 29.4913379,120.244123 30.6644695,119.694394 C30.6644695,119.694394 30.6644695,119.694394 30.6644695,119.694394 Z" id="Shape" fill="#F9F9FA"></path>
                <path d="M219,103.2 L218,103 L218.916667,103.3 C218.916667,103.3 218.916667,103.2 219,103.2 Z" id="Shape" fill="#FFFFFF"></path>
                <path d="M186.38674,121 C189.08011,120.036066 191.773481,119.003279 194.259669,117.901639 L196.676796,111.980328 C197.229282,110.672131 198.472376,109.845902 199.853591,109.845902 C200.267956,109.845902 200.751381,109.914754 201.165746,110.121311 L205.447514,111.911475 C206.828729,111.016393 208.140884,110.052459 209.383978,109.088525 L210.212707,103.580328 C210.41989,101.927869 211.870166,100.688525 213.596685,100.688525 C213.734807,100.688525 213.941989,100.688525 214.08011,100.757377 L217.809392,101.308197 C218.914365,100.068852 219.950276,98.7606557 220.917127,97.452459 L220.226519,94.4229508 C220.019337,93.5278689 220.157459,92.6327869 220.640884,91.8754098 C221.124309,91.1180328 221.883978,90.5672131 222.781768,90.3606557 L225.61326,89.6721311 C227.339779,86.2983607 228.651934,83.6819672 232.381215,83.1311475 C232.588398,83.1311475 232.726519,83.0622951 232.933702,83.0622951 C237.629834,83.0622951 243.223757,92.9081967 244.881215,95.9377049 C248.472376,102.685246 250.889503,109.983607 251.925414,116.731148 C253.099448,116.455738 254.480663,116.24918 256,116.180328 C254.618785,106.747541 250.889503,98.4852459 248.472376,94.0786885 C243.154696,84.095082 237.906077,79 232.933702,79 C232.519337,79 232.174033,79 231.759669,79.0688525 C226.856354,79.8262295 224.508287,83.0622951 222.850829,86.1606557 L221.814917,86.3672131 C219.881215,86.8491803 218.223757,88.0196721 217.118785,89.7409836 C216.082873,91.4622951 215.737569,93.4590164 216.220994,95.3868852 L216.497238,96.4885246 C216.428177,96.6262295 216.290055,96.7639344 216.220994,96.9016393 L214.701657,96.695082 C214.356354,96.6262295 214.01105,96.6262295 213.665746,96.6262295 C209.936464,96.6262295 206.759669,99.3803279 206.207182,103.029508 L205.654696,106.885246 C205.447514,107.022951 205.240331,107.160656 205.033149,107.298361 L202.754144,106.403279 C201.856354,106.059016 200.889503,105.852459 199.922652,105.852459 C196.883978,105.852459 194.121547,107.642623 192.947514,110.465574 L191.151934,114.803279 C188.872928,115.767213 186.455801,116.662295 184.038674,117.488525 C182.864641,117.695082 181.89779,117.970492 181,118.314754 C181.552486,118.590164 182.035912,118.865574 182.519337,119.140984 C183.69337,119.829508 184.867403,120.44918 186.38674,121 Z" id="Shape" fill="#F9F9FA"></path>
                <polygon id="Shape" fill="#FFFFFF" points="197 117.6 197 117.5 197.2 117"></polygon>
                <path d="M205.4,114.1 L205,114 L205.4,114.1 C205.4,114.2 205.4,114.1 205.4,114.1 Z" id="Shape" fill="#FFFFFF"></path>
                <path d="M154.13072,110.431373 C156.832863,106.245098 157.110006,102.196078 156.971435,100.205882 C156.902149,100.754902 156.832863,101.098039 156.832863,101.098039 C156.832863,101.372549 156.555721,101.578431 156.347863,101.578431 C156.347863,101.578431 156.278578,101.578431 156.278578,101.578431 C156.001435,101.509804 155.793578,101.303922 155.862863,101.029412 C155.862863,100.823529 156.347863,97.1862745 156.625006,95.4705882 C156.625006,94.7156863 156.486435,94.0980392 156.07072,93.754902 C155.932149,93.6862745 155.793578,93.6176471 155.58572,93.6176471 C154.338577,93.6176471 151.913577,94.9901961 150.943577,94.9901961 C150.805006,94.9901961 150.73572,94.9901961 150.666434,94.9215686 C145.400719,91.7647059 139.23429,89.7058824 132.513575,89.6372549 C132.236432,89.6372549 132.028575,89.6372549 131.890004,89.6372549 C132.236432,89.9803922 132.513575,90.1176471 132.513575,90.1176471 C132.721432,90.3235294 132.790718,90.5980392 132.582861,90.8039216 C132.513575,90.9411765 132.305718,91.0098039 132.167147,91.0098039 C132.028575,91.0098039 131.959289,90.9411765 131.820718,90.872549 C131.751432,90.8039216 131.058575,90.254902 130.088575,89.3627451 C128.841432,88.6078431 127.040003,86 126.000717,86 C126.000717,86 125.931432,86 125.931432,86 C124.407146,86.2058824 122.744288,90.8039216 121.635717,91.0784314 C118.240717,92.0392157 116.577859,93 114.014288,94.2352941 L114.984288,94.7156863 C115.261431,94.8529412 115.330716,95.127451 115.192145,95.4019608 C115.122859,95.6078431 114.915002,95.6764706 114.707145,95.6764706 C114.637859,95.6764706 114.568573,95.6764706 114.499288,95.6078431 L112.490002,94.5784314 C111.38143,94.2352941 108.95643,92.7254902 107.640001,92.7254902 C107.362858,92.7254902 107.155001,92.7941176 107.01643,92.9313725 C105.492144,93.6176471 106.254287,98.9019608 105.145715,99.7254902 C101.335001,102.745098 98.3557145,106.107843 96,109.333333 C96.2078572,111.04902 97.5935716,115.372549 106.670001,119.147059 C108.540716,119.901961 110.550002,120.519608 112.628573,121 C114.845716,120.45098 116.439288,119.627451 118.102145,118.735294 C120.873574,117.22549 123.714289,115.715686 129.326432,115.715686 C129.326432,115.715686 129.326432,115.715686 129.395718,115.715686 C129.395718,115.715686 129.395718,115.715686 129.395718,115.715686 C135.007861,115.715686 137.848576,117.22549 140.620005,118.735294 C140.758576,118.803922 140.897147,118.872549 141.035719,118.941176 C146.994291,117.019608 151.844291,113.931373 154.13072,110.431373 Z" id="Shape" fill="#FFFFFF"></path>
                <path d="M159,101 C160.397059,102.266667 162.235294,104.066667 164,106 C162.602941,104.333333 160.985294,102.6 159,101 Z" id="Shape" fill="#FFFFFF"></path>
                <path d="M89.4671815,116 C91.8725869,110.886364 96.1335907,104.204545 103.212355,98.4772727 C103.281081,98.0681818 103.418533,97.25 103.418533,96.6363636 C103.62471,94.5909091 103.830888,92.2727273 105.549035,91.3181818 C105.892664,91.0454545 106.511197,90.8409091 107.198456,90.8409091 C108.504247,90.8409091 109.94749,91.5227273 111.390734,92.2045455 C111.665637,92.3409091 112.009266,92.5454545 112.352896,92.6136364 C112.902703,92.3409091 113.45251,92.0681818 113.933591,91.8636364 C115.857915,90.9090909 117.507336,90.0909091 120.256371,89.3409091 C120.531274,89 120.874903,88.3863636 121.149807,87.9090909 C122.249421,86.1363636 123.349035,84.3636364 125.135907,84.0909091 C125.273359,84.0909091 125.410811,84.0909091 125.479537,84.0909091 C126.92278,84.0909091 128.09112,85.25 129.328185,86.4772727 C129.671815,86.8181818 130.152896,87.3636364 130.496525,87.5681818 C130.771429,87.5681818 130.977606,87.5681818 131.183784,87.5681818 C131.321236,87.5681818 131.458687,87.5681818 131.664865,87.5681818 L131.939768,87.5681818 C138.331274,87.6363636 144.585328,89.4090909 150.427027,92.8181818 C150.701931,92.75 151.114286,92.5454545 151.457915,92.4090909 C152.557529,92 153.725869,91.5227273 154.756757,91.5227273 C155.37529,91.5227273 155.925097,91.6590909 156.337452,91.9318182 C158.261776,93.0909091 157.918147,95.5454545 157.711969,97.1818182 C157.711969,97.3863636 157.643243,97.5909091 157.643243,97.7954545 C164.103475,102.977273 168.433205,109.522727 169.807722,115.727273 C170.357529,115.727273 170.907336,115.659091 171.525869,115.659091 C172.419305,115.659091 173.244015,115.727273 174,115.795455 C172.762934,109.045455 168.501931,101.954545 161.972973,96.1590909 C162.110425,93.9090909 161.766795,90.5681818 158.53668,88.5227273 C157.437066,87.8409091 156.131274,87.5 154.756757,87.5 C153.244788,87.5 151.938996,87.9090909 150.701931,88.3863636 C144.791506,85.3181818 138.4,83.6818182 132.07722,83.5454545 C130.565251,82.0454545 128.572201,80 125.410811,80 C125.067181,80 124.792278,80 124.448649,80.0681818 C120.737452,80.6136364 118.881853,83.6136364 117.576062,85.7954545 C117.576062,85.7954545 117.576062,85.7954545 117.576062,85.8636364 C115.376834,86.6136364 113.796139,87.3636364 112.28417,88.1136364 C110.840927,87.4318182 109.054054,86.75 107.198456,86.75 C105.823938,86.75 104.518147,87.0909091 103.418533,87.7727273 C99.9135135,89.75 99.5011583,93.7727273 99.2949807,96.2272727 C99.2949807,96.2954545 99.2949807,96.2954545 99.2949807,96.3636364 C91.7351351,102.840909 87.4054054,110.340909 85,115.727273 C85.3436293,115.727273 85.6872587,115.727273 86.030888,115.727273 C87.4054054,115.795455 88.4362934,115.931818 89.4671815,116 Z" id="Shape" fill="#F9F9FA"></path>
                <path d="M74,94.7586207 C71.13,96.9655172 67.03,99.1034483 62.315,98.8275862 C54.525,98.3448276 52.27,93.1724138 52.1333333,88.4137931 C51.9966667,84.7586207 53.3633333,81.3793103 53.9783333,80 C52.5433333,80.5517241 50.5616667,81.1724138 48.2383333,81.862069 C45.4366667,85.1034483 33.9566667,97.6551724 33,118.965517 C35.5966667,117.586207 38.3983333,116.206897 43.66,116.206897 C49.195,116.206897 51.9966667,117.724138 54.73,119.241379 C57.3266667,120.689655 59.7866667,122 64.8433333,122 C67.3033333,122 69.1483333,121.655172 70.72,121.172414 C68.5333333,115.655172 66.0733333,107.310345 74,94.7586207 Z" id="Shape" fill="url(#linearGradient-1)"></path>
                <path d="M21.7370695,76.8141844 C14.7054051,73.1304965 10.3623183,62.9829787 12.0168276,54.2255319 C13.4645232,46.7191489 21.1166285,37.6141844 24.1498955,34.2085106 C24.0120197,34.0695035 23.8741439,34 23.6673303,34 C23.5294545,34 23.3226409,34.0695035 23.1847651,34.2085106 C22.9090135,34.4865248 18.1522994,39.0042553 14.4985915,44.0780142 C11.8100139,46.9971631 8.56993331,51.2368794 7.39798925,55.6156028 C5.74347999,62.2184397 9.60400159,71.0453901 12.4304549,74.729078 C16.4288523,79.8028369 20.220436,81.9574468 26.5627215,82.7914894 C26.838473,82.8609929 27.6657277,82.9304965 28.6997959,83 C28.8376717,82.9304965 28.9755475,82.8609929 29.1134233,82.8609929 C40.2813607,82.7219858 50.0705405,79.4553191 54,77.9262411 C48.0713418,78.8297872 29.9406779,81.1234043 21.7370695,76.8141844 Z" id="Shape" fill="url(#linearGradient-2)"></path>
                <path d="M96.2,110 C94.38,112.440678 93.05,114.813559 92,116.915254 C94.38,117.457627 96.13,118.40678 97.81,119.288136 C100.47,120.711864 102.99,122 108.17,122 C110.13,122 111.67,121.79661 113,121.525424 C110.9,121.050847 108.87,120.508475 106.98,119.694915 C97.74,115.966102 96.34,111.694915 96.2,110 Z" id="Shape" fill="url(#linearGradient-3)"></path>
                <path d="M158.68262,100.702786 C158.070529,100.157895 157.390428,99.5448916 156.710327,99 C156.642317,99.2724458 156.642317,99.5448916 156.642317,99.749226 C156.710327,101.724458 156.506297,105.743034 153.853904,109.897833 C151.609572,113.371517 146.848866,116.436533 141,118.479876 C143.448363,119.773994 145.896725,121 150.657431,121 C155.690176,121 158.138539,119.637771 160.722922,118.275542 C162.763224,117.185759 164.803526,116.095975 168,115.551084 C167.251889,112.417957 165.755668,109.080495 163.307305,105.811146 C161.675063,103.835913 159.974811,101.996904 158.68262,100.702786 Z" id="Shape" fill="url(#linearGradient-4)"></path>
                <path d="M71.5308707,106.153798 C73.5344952,97.6603892 80.6508169,88.131199 92.7416547,77.7733836 C99.8579764,71.6967985 103.450682,62.9962335 104.901583,58.4387947 C106.974298,52.0860013 107.527022,46.0784683 106.490665,42.6258632 L106.628846,42.0734463 C106.767027,41.5210295 106.767027,40.9686127 106.490665,40.485248 C106.214303,40.0018832 105.79976,39.6566227 105.247035,39.4494664 L104.970673,39.3804143 C103.243411,36.2040176 100.963424,33.165725 98.2688948,30.2655367 L98.1998043,27.2272442 C98.1998043,26.6748274 97.9925328,26.1914626 97.5779898,25.77715 C97.1634468,25.4318895 96.6798133,25.2247332 96.1270893,25.2247332 C96.1270893,25.2247332 96.1270893,25.2247332 96.0579988,25.2247332 L92.8107452,25.2937853 C89.8398536,22.8769617 86.5926,20.7363465 83.138075,18.8028876 L81.8253554,13.9001883 C81.6871744,13.3477715 81.3417219,12.9334589 80.8580884,12.6572505 C80.5126359,12.4500942 80.1671834,12.3810421 79.8217309,12.3810421 C79.6144594,12.3810421 79.4762784,12.3810421 79.2690069,12.4500942 L73.0508617,14.1763967 C67.3854406,12.1048336 62.0654719,11 57.5745893,11 C56.9527748,11 56.4000508,11 55.8473268,11.0690521 C45.4837515,11.7595731 29.4547551,26.3295669 23.651153,31.9918393 C23.0293385,32.0608914 22.407524,32.2680477 21.9238905,32.7514124 C21.716619,32.9585687 16.8802838,37.5160075 13.0112157,42.7639674 C10.2475957,45.7332078 6.72398009,50.2906466 5.48035106,55.0552417 C3.61490751,62.3057125 7.55306611,71.5586943 10.9385007,75.8399247 C15.2912023,81.2950408 19.4366324,83.7118644 26.4147731,84.6095417 C27.5893116,84.747646 30.6983842,85.0238544 34.4292713,85.0238544 C37.6765248,85.0238544 40.7165069,84.8166981 43.4110365,84.4023854 C35.3274478,94.8983051 31.0438367,106.844319 30.6983842,120.102323 C30.6983842,120.102323 30.6983842,120.102323 30.6983842,120.102323 C31.2511082,119.826114 31.8038322,119.549906 32.3565562,119.204645 C32.4947372,119.135593 32.6329182,119.066541 32.7710992,118.997489 C33.7383662,97.6603892 45.3455705,85.0929065 48.1782811,81.8474576 C50.5273582,81.1569366 52.5309827,80.5354677 53.9818832,79.9830508 C55.7782363,79.3615819 56.8145938,78.8782172 56.9527748,78.8091651 C57.4364083,78.6020088 57.7127703,77.9805399 57.4364083,77.428123 C57.2291368,76.9447583 56.6073223,76.6685499 56.0545983,76.9447583 C56.0545983,76.9447583 55.3636933,77.2900188 54.1200642,77.7043315 C50.1128151,79.2234777 40.3710544,82.4689266 29.1783931,82.6070308 C29.0402121,82.6070308 28.9020311,82.6760829 28.7638501,82.745135 C27.6584021,82.6760829 26.8984066,82.6070308 26.6220446,82.5379787 C20.2657184,81.7093534 16.4657408,79.5687382 12.4584917,74.5279347 C9.55669066,70.8681733 5.68762256,62.0985562 7.4148851,55.5386064 C8.52033313,51.1883239 11.7675867,46.9761456 14.5312068,44.0759573 C18.1930034,39.0351538 23.0293385,34.5467671 23.23661,34.2705587 C23.374791,34.1324545 23.512972,34.0634024 23.7202435,34.0634024 C23.8584245,34.0634024 24.065696,34.1324545 24.203877,34.2705587 C24.203877,34.2705587 24.203877,34.2705587 24.203877,34.2705587 C34.7056333,23.9817954 47.9019191,13.693032 55.9164173,13.1406152 C56.4000508,13.0715631 56.9527748,13.0715631 57.5054988,13.0715631 C61.9272909,13.0715631 67.3163501,14.2454488 72.9126807,16.3170119 L73.3963142,16.1789077 L76.9199298,17.7671061 C76.9890203,17.7671061 77.0581108,17.8361582 77.1272013,17.8361582 C77.3344728,17.8361582 77.5417443,17.698054 77.6108348,17.5599498 C77.7490158,17.2837414 77.6108348,17.007533 77.3344728,16.8694288 L74.9163053,15.7645951 L79.6835499,14.4526051 L81.2726314,20.1839297 C85.0035185,22.1864407 88.6653151,24.6032643 91.9816592,27.3653484 L95.9889083,27.2962963 L96.0579988,31.1632141 C96.1270893,31.2322662 96.1270893,31.2322662 96.1961798,31.3013183 C96.0579988,32.475204 95.9889083,33.4419335 95.9198178,33.5800377 C95.8507273,33.8562461 95.9889083,34.1324545 96.2652703,34.2015066 C96.3343608,34.2015066 96.4034513,34.2015066 96.4034513,34.2015066 C96.6107228,34.2015066 96.8179943,34.0634024 96.8870848,33.8562461 C96.9561753,33.6490898 97.0252658,33.0276208 97.0943563,32.1989956 C99.5816144,34.8920276 101.72342,37.861268 103.381592,41.0376648 L104.48704,41.3829253 L104.141587,42.556811 C104.141587,42.556811 104.141587,42.6258632 104.141587,42.6258632 L103.036139,45.3188952 C102.897958,45.5951036 103.036139,45.871312 103.312501,46.0094162 C103.381592,46.0094162 103.450682,46.0784683 103.519773,46.0784683 C103.727044,46.0784683 103.934316,45.9403641 104.003406,45.7332078 L104.55613,44.2831136 C105.592488,51.1192718 101.447058,67.346516 91.1525732,76.1161331 C82.9308035,83.1594476 77.5417443,89.3050847 74.0872192,94.6911488 C66.072721,107.258632 68.6290696,115.613936 70.8399657,121 C71.5308707,120.792844 72.1526852,120.516635 72.7744997,120.240427 C71.5999612,116.856874 70.0799701,112.299435 71.5308707,106.153798 Z" id="Shape" fill="url(#linearGradient-5)"></path>
                <g id="Group" transform="translate(191.000000, 85.000000)">
                    <path d="M42.6206897,0.137037037 C42.5517241,0.137037037 42.4827586,0.137037037 42.4137931,0.137037037 C39.5172414,0.616666667 38.6206897,2.74074074 36.7586207,6.3037037 L39.7241379,5.96111111 C40.137931,5.89259259 40.4827586,6.09814815 40.6896552,6.44074074 C40.8965517,6.78333333 40.8965517,7.19444444 40.7586207,7.53703704 L35.7241379,16.3759259 C35.5172414,16.7185185 35.1724138,16.9240741 34.8275862,16.9240741 C34.7586207,16.9240741 34.7586207,16.9240741 34.6896552,16.9240741 C34.2758621,16.8555556 33.9310345,16.5814815 33.7931034,16.1703704 L32.8275862,12.8814815 C31.6551724,14.5259259 30.2068966,16.3759259 28.3448276,18.362963 L27.9310345,18.2944444 C27.9310345,18.2944444 27.862069,18.362963 27.862069,18.362963 L30.2758621,18.9796296 C30.6206897,19.0481481 30.9655172,19.3907407 31.0344828,19.7333333 C31.1034483,20.0759259 30.9655172,20.487037 30.6896552,20.7611111 L22.6896552,27.1333333 C22.4827586,27.2703704 22.2758621,27.3388889 22.0689655,27.3388889 C21.9310345,27.3388889 21.7241379,27.2703704 21.5862069,27.2018519 C21.2413793,26.9962963 21.0344828,26.5851852 21.0344828,26.1740741 L21.1724138,24.8037037 L21.1034483,24.8722222 L21.1034483,25.0092593 C19.3103448,26.4481481 17.3793103,27.75 15.4482759,28.9833333 L15.1034483,28.8462963 C15.1034483,28.8462963 15.1034483,28.8462963 15.1034483,28.8462963 L16.6206897,29.6685185 C16.9655172,29.8740741 17.1724138,30.2166667 17.1724138,30.6277778 C17.1724138,31.0388889 16.9655172,31.3814815 16.5517241,31.5185185 L7.03448276,35.9722222 C6.89655172,36.0407407 6.75862069,36.0407407 6.62068966,36.0407407 C6.34482759,36.0407407 6.13793103,35.9722222 5.93103448,35.7666667 C5.65517241,35.4925926 5.51724138,35.0814815 5.65517241,34.6703704 L5.86206897,34.0537037 L5.72413793,34.1222222 L5.72413793,34.1907407 C5.5862069,34.2592593 5.44827586,34.3277778 5.31034483,34.3962963 L5.10344828,34.5333333 C5.03448276,34.5333333 5.03448276,34.5333333 4.96551724,34.5333333 C3.31034483,35.287037 1.65517241,35.9722222 0,36.5888889 C0.75862069,36.6574074 1.5862069,36.7259259 2.48275862,36.7259259 C7.5862069,36.7259259 10.0689655,35.3555556 12.6896552,33.9851852 C15.4482759,32.4777778 18.2758621,30.9703704 23.862069,30.9703704 C29.4482759,30.9703704 32.2758621,32.4777778 35.0344828,33.9851852 C37.6551724,35.4240741 40.137931,36.7259259 45.2413793,36.7259259 C50.3448276,36.7259259 52.8275862,35.3555556 55.4482759,33.9851852 C56.6896552,33.3 57.9310345,32.6148148 59.5172414,32.0666667 C57.3103448,16.2388889 46.6896552,0.137037037 42.6206897,0.137037037 Z" id="Shape" fill="url(#linearGradient-6)"></path>
                    <path d="M38,8.29074074 L33.7931034,8.77037037 L33.9310345,9.18148148 C34.0689655,9.04444444 34.2758621,8.97592593 34.4827586,9.11296296 C34.7586207,9.25 34.8275862,9.52407407 34.7586207,9.79814815 C34.6206897,10.0722222 34.4827586,10.3462963 34.3448276,10.6203704 L35.1724138,13.3611111 L38,8.29074074 Z" id="Shape" fill="url(#linearGradient-7)"></path>
                    <path d="M34.6896552,16.9240741 C34.7586207,16.9240741 34.7586207,16.9240741 34.8275862,16.9240741 C35.1724138,16.9240741 35.5172414,16.7185185 35.7241379,16.3759259 L40.7586207,7.53703704 C40.9655172,7.19444444 40.9655172,6.78333333 40.6896552,6.44074074 C40.4827586,6.09814815 40.137931,5.96111111 39.7241379,5.96111111 L36.7586207,6.3037037 C36.7586207,6.3037037 36.7586207,6.37222222 36.6896552,6.37222222 L32.8965517,7.26296296 C32.2068966,7.4 31.7241379,8.1537037 31.9310345,8.83888889 L32.5517241,11.3740741 C32.9655172,10.7574074 33.3793103,10.0722222 33.7241379,9.18148148 C33.7241379,9.11296296 33.7931034,9.04444444 33.862069,9.04444444 L33.7241379,8.63333333 L37.9310345,8.1537037 L35.0344828,13.2240741 L34.2068966,10.4833333 C33.7241379,11.3740741 33.2413793,12.1277778 32.8275862,12.7444444 L32.8275862,12.812963 C32.8275862,12.812963 32.7586207,12.8814815 32.7586207,12.8814815 L33.7241379,16.1703704 C33.9310345,16.5814815 34.2758621,16.9240741 34.6896552,16.9240741 Z" id="Shape" fill="url(#linearGradient-8)"></path>
                    <path d="M27.862069,20.5555556 L23.862069,19.5277778 L23.6551724,21.4462963 C23.862069,21.3777778 24.0689655,21.3777778 24.2068966,21.5833333 C24.4137931,21.7888889 24.4137931,22.1314815 24.2068966,22.337037 L23.5172414,23.0222222 L23.3793103,24.2555556 L27.862069,20.5555556 Z" id="Shape" fill="url(#linearGradient-9)"></path>
                    <path d="M21.5862069,27.3388889 C21.7241379,27.4074074 21.9310345,27.4759259 22.0689655,27.4759259 C22.2758621,27.4759259 22.5517241,27.4074074 22.6896552,27.2703704 L30.6896552,20.8981481 C30.9655172,20.6240741 31.1034483,20.2814815 31.0344828,19.8703704 C30.9655172,19.5277778 30.6896552,19.1851852 30.2758621,19.1166667 L27.862069,18.5 L27.1034483,18.2944444 L23.5172414,17.8148148 C23.4482759,17.8148148 23.3793103,17.8148148 23.3103448,17.8148148 C22.6206897,17.8148148 22.0689655,18.2944444 22,18.9796296 L21.3103448,23.5703704 L23.4482759,21.5833333 C23.5172414,21.5148148 23.5172414,21.5148148 23.5862069,21.5148148 L23.7931034,19.5962963 L27.7931034,20.6240741 L23.3103448,24.187037 L23.4482759,22.9537037 L21.1724138,25.0777778 L21.0344828,26.4481481 C21.0344828,26.7907407 21.2413793,27.1333333 21.5862069,27.3388889 Z" id="Shape" fill="url(#linearGradient-10)"></path>
                    <path d="M13.862069,30.6962963 L10.0689655,28.6407407 L9.03448276,31.45 C9.17241379,31.45 9.37931034,31.5185185 9.44827586,31.7240741 C9.5862069,31.9981481 9.51724138,32.2722222 9.24137931,32.4092593 L8.55172414,32.7518519 L8.4137931,33.2314815 L13.862069,30.6962963 Z" id="Shape" fill="url(#linearGradient-11)"></path>
                    <path d="M5.93103448,35.9037037 C6.13793103,36.1092593 6.34482759,36.1777778 6.62068966,36.1777778 C6.75862069,36.1777778 6.89655172,36.1777778 7.03448276,36.1092593 L16.5517241,31.6555556 C16.8965517,31.5185185 17.1034483,31.1759259 17.1724138,30.7648148 C17.1724138,30.3537037 16.9655172,30.0111111 16.6206897,29.8055556 L15.1034483,28.9833333 L14.8965517,28.8462963 L10.2068966,26.9277778 C10.0689655,26.8592593 9.86206897,26.8592593 9.72413793,26.8592593 C9.17241379,26.8592593 8.68965517,27.2018519 8.48275862,27.6814815 L6.55172414,32.3407407 L6.4137931,32.7518519 L8.75862069,31.45 C8.82758621,31.3814815 8.96551724,31.3814815 9.03448276,31.3814815 L10.0689655,28.5722222 L13.862069,30.6277778 L8.4137931,33.162963 L8.55172414,32.6833333 L5.86206897,34.1222222 L5.65517241,34.7388889 C5.51724138,35.2185185 5.5862069,35.6296296 5.93103448,35.9037037 Z" id="Shape" fill="url(#linearGradient-12)"></path>
                </g>
                <path d="M233.164384,83 C232.958904,83 232.821918,83 232.616438,83.0692718 C228.917808,83.6234458 227.547945,86.3250444 225.90411,89.6500888 L223.09589,90.3428064 C222.205479,90.5506217 221.452055,91.1047957 220.972603,91.8667851 C220.493151,92.6287744 220.356164,93.5293073 220.561644,94.4298401 L221.246575,97.4777975 C220.287671,98.7939609 219.260274,100.040853 218.164384,101.357016 L214.465753,100.802842 C214.328767,100.802842 214.123288,100.73357 213.986301,100.73357 C212.342466,100.73357 210.90411,101.980462 210.630137,103.642984 L209.808219,109.184725 C208.575342,110.154529 207.273973,111.055062 205.90411,112.024867 L201.657534,110.223801 C201.246575,110.085258 200.835616,109.946714 200.356164,109.946714 C198.986301,109.946714 197.753425,110.777975 197.205479,112.094139 L194.808219,118.05151 C192.342466,119.159858 189.739726,120.198934 187,121.168739 C188.09589,121.515098 189.260274,121.861456 190.767123,122 C192.342466,121.376554 193.986301,120.683837 195.69863,119.921847 C195.767123,119.921847 195.767123,119.921847 195.835616,119.921847 L196.041096,119.783304 C196.178082,119.714032 196.315068,119.64476 196.452055,119.575488 L196.452055,119.506217 L196.589041,119.436945 L199.260274,117.982238 L199.945205,117.635879 C200.219178,117.497336 200.287671,117.220249 200.150685,116.943162 C200.082192,116.804618 199.876712,116.666075 199.739726,116.666075 C199.671233,116.666075 199.534247,116.666075 199.465753,116.735346 L197.136986,118.05151 L197.136986,118.05151 L197.273973,117.635879 L199.191781,112.9254 C199.39726,112.371226 199.876712,112.094139 200.424658,112.094139 C200.561644,112.094139 200.767123,112.094139 200.90411,112.16341 L205.561644,114.10302 L205.835616,114.172291 L206.178082,114.310835 C208.09589,113.063943 210.013699,111.74778 211.794521,110.293073 L211.794521,110.154529 L211.863014,110.085258 L214.123288,107.937833 L214.808219,107.245115 C215.013699,107.0373 215.013699,106.690941 214.808219,106.483126 C214.671233,106.344583 214.39726,106.275311 214.260274,106.344583 C214.191781,106.344583 214.191781,106.413854 214.123288,106.413854 L212,108.422735 L212.684932,103.781528 C212.753425,103.08881 213.369863,102.603908 213.986301,102.603908 C214.054795,102.603908 214.123288,102.603908 214.191781,102.603908 L217.753425,103.08881 L218.575342,103.227353 L218.986301,103.296625 C220.835616,101.287744 222.273973,99.4866785 223.438356,97.7548845 C223.438356,97.7548845 223.506849,97.6856128 223.506849,97.6856128 L223.506849,97.616341 C223.986301,96.9928952 224.465753,96.2309059 224.876712,95.330373 C225.013699,95.053286 225.150685,94.7761989 225.287671,94.4991119 C225.424658,94.2220249 225.287671,93.9449378 225.013699,93.8063943 C224.808219,93.7371226 224.60274,93.7371226 224.465753,93.8756661 C224.39726,93.9449378 224.39726,93.9449378 224.328767,94.0142096 C223.917808,94.8454707 223.575342,95.60746 223.164384,96.2309059 L222.547945,93.6678508 C222.342466,92.9751332 222.821918,92.2131439 223.506849,92.0746004 L227.273973,91.1740675 C227.273973,91.1740675 227.273973,91.1047957 227.342466,91.1047957 C229.191781,87.4333925 230.082192,85.285968 232.958904,84.8703375 C233.027397,84.8703375 233.09589,84.8703375 233.164384,84.8703375 C237.136986,84.8703375 247.753425,101.079929 250.013699,117.220249 C250.630137,117.012433 251.246575,116.804618 252,116.666075 C251.041096,109.946714 248.575342,102.534636 245.013699,95.7460036 C243.369863,92.9751332 237.821918,83 233.164384,83 Z" id="Shape" fill="url(#linearGradient-13)"></path>
                <path d="M157.945205,97.9936709 C157.945205,97.7848101 158.013699,97.5759494 158.013699,97.3670886 C158.219178,95.6962025 158.561644,93.1898734 156.643836,92.0063291 C156.164384,91.7278481 155.684932,91.5886076 155.068493,91.5886076 C154.041096,91.5886076 152.876712,92.0759494 151.780822,92.4936709 C151.506849,92.6329114 151.09589,92.7721519 150.753425,92.9113924 C144.863014,89.4303797 138.69863,87.6202532 132.328767,87.5506329 L132.054795,87.5506329 C131.849315,87.5506329 131.712329,87.5506329 131.575342,87.5506329 C131.369863,87.5506329 131.164384,87.5506329 130.890411,87.5506329 C130.547945,87.2721519 130.068493,86.7848101 129.726027,86.4367089 C128.493151,85.1835443 127.39726,84 125.890411,84 C125.753425,84 125.616438,84 125.547945,84 C123.767123,84.278481 122.671233,86.0886076 121.575342,87.8987342 C121.30137,88.3860759 120.890411,89.0126582 120.684932,89.3607595 C117.945205,90.1265823 116.30137,90.9620253 114.383562,91.9367089 C113.90411,92.2151899 113.356164,92.4240506 112.808219,92.7025316 C112.534247,92.5632911 112.191781,92.4240506 111.849315,92.2848101 C110.479452,91.5886076 108.972603,90.8924051 107.671233,90.8924051 C106.917808,90.8924051 106.369863,91.1012658 106.027397,91.3797468 C104.315068,92.3544304 104.109589,94.721519 103.90411,96.8101266 C103.835616,97.4367089 103.767123,98.2721519 103.69863,98.6898734 C96.6438356,104.537975 92.3972603,111.360759 90,116.582278 C90.7534247,116.651899 91.4383562,116.791139 92.1232877,117 C93.1506849,114.841772 94.5205479,112.405063 96.2328767,109.898734 C98.4931507,106.626582 101.438356,103.21519 105.273973,100.151899 C106.369863,99.2468354 105.616438,93.9556962 107.123288,93.2594937 C107.260274,93.1202532 107.465753,93.0506329 107.739726,93.0506329 C109.041096,93.0506329 111.438356,94.5822785 112.534247,94.9303797 L114.520548,95.9746835 C114.589041,96.0443038 114.657534,96.0443038 114.726027,96.0443038 C114.931507,96.0443038 115.068493,95.9746835 115.205479,95.7658228 C115.342466,95.4873418 115.205479,95.2088608 115,95.0696203 L114.041096,94.5822785 C116.575342,93.3291139 118.219178,92.3544304 121.575342,91.3797468 C122.671233,91.1012658 124.315068,86.4367089 125.821918,86.2278481 C125.821918,86.2278481 125.890411,86.2278481 125.890411,86.2278481 C126.917808,86.2278481 128.69863,88.8734177 129.931507,89.6392405 C130.890411,90.5443038 131.575342,91.1012658 131.643836,91.1708861 C131.712329,91.2405063 131.849315,91.3101266 131.986301,91.3101266 C132.123288,91.3101266 132.260274,91.2405063 132.39726,91.1012658 C132.60274,90.8924051 132.534247,90.5443038 132.328767,90.4050633 C132.328767,90.4050633 132.123288,90.1962025 131.712329,89.9177215 C131.849315,89.9177215 132.054795,89.9177215 132.328767,89.9177215 C138.972603,89.9873418 145.068493,92.1455696 150.273973,95.278481 C150.342466,95.3481013 150.410959,95.3481013 150.547945,95.3481013 C151.506849,95.3481013 153.835616,93.9556962 155.136986,93.9556962 C155.342466,93.9556962 155.479452,94.0253165 155.616438,94.0949367 C156.09589,94.3734177 156.232877,95.0696203 156.164384,95.835443 C155.890411,97.5759494 155.479452,101.335443 155.410959,101.474684 C155.342466,101.753165 155.547945,102.031646 155.821918,102.031646 C155.821918,102.031646 155.890411,102.031646 155.890411,102.031646 C156.164384,102.031646 156.369863,101.822785 156.369863,101.544304 C156.369863,101.544304 156.438356,101.196203 156.506849,100.639241 C156.506849,100.43038 156.575342,100.151899 156.575342,99.8734177 C157.260274,100.43038 157.876712,100.987342 158.561644,101.613924 C160.342466,103.28481 161.917808,105.025316 163.219178,106.835443 C165.684932,110.177215 167.260274,113.658228 167.945205,116.791139 C168.561644,116.721519 169.246575,116.582278 170,116.582278 C168.69863,110.037975 164.383562,103.35443 157.945205,97.9936709 Z" id="Shape" fill="url(#linearGradient-14)"></path>
                <path d="M175.471503,41 L187.528497,41 C187.797927,41 188,40.7857143 188,40.5 C188,40.2142857 187.797927,40 187.528497,40 L175.471503,40 C175.202073,40 175,40.2142857 175,40.5 C175,40.7142857 175.202073,41 175.471503,41 Z" id="Shape" fill="#D7D7DB"></path>
                <path d="M245.369727,41.7361711 C245.44383,41.8680855 245.66614,42 245.88845,42 L246.481277,42 C246.77769,42 247,41.8021283 247,41.5382994 C247,41.2744705 246.77769,41.0765988 246.481277,41.0765988 L246.184864,41.0765988 C245.962554,40.6808554 245.517934,40.0872403 244.999211,39.2297964 C244.851004,39.0319247 244.480487,38.9000102 244.258177,39.0978819 C244.035868,39.2297964 243.887661,39.5595825 244.109971,39.7574542 C244.776901,40.7468126 245.221521,41.4723422 245.369727,41.7361711 Z" id="Shape" fill="#D7D7DB"></path>
                <path d="M219.100458,29.8095238 C219.165588,29.9365079 219.36098,30 219.491241,30 C219.621502,30 219.686632,29.9365079 219.816893,29.8730159 C220.012284,29.6825397 220.077415,29.4285714 219.882023,29.2380952 C219.230719,28.4761905 218.579414,27.7777778 217.862979,27.1428571 C217.667587,26.952381 217.341935,26.952381 217.146544,27.1428571 C216.951152,27.3333333 216.951152,27.6507937 217.146544,27.8412698 C217.862979,28.4126984 218.514283,29.047619 219.100458,29.8095238 Z" id="Shape" fill="#D7D7DB"></path>
                <path d="M198.545942,27 C198.685723,27 198.755614,26.922179 198.895395,26.844358 C200.363095,25.5214008 202.38992,24.6653696 204.836089,24.3540856 C206.793023,24.0428016 208.610177,24.1206226 210.35744,24.5875486 C210.637002,24.6653696 210.916564,24.4319066 210.986454,24.1206226 C211.056345,23.8093385 210.846673,23.4980545 210.567111,23.4202335 C208.680067,22.9533074 206.723133,22.8754864 204.696308,23.1867704 C202.040468,23.5758755 199.803971,24.5097276 198.196489,25.9883268 C197.986818,26.2217899 197.916927,26.5330739 198.126599,26.766537 C198.196489,26.922179 198.33627,27 198.545942,27 Z" id="Shape" fill="#D7D7DB"></path>
                <path d="M260.472973,42 L264.527027,42 C264.797297,42 265,41.7857143 265,41.5 C265,41.2142857 264.797297,41 264.527027,41 L260.472973,41 C260.202703,41 260,41.2142857 260,41.5 C260,41.7142857 260.202703,42 260.472973,42 Z" id="Shape" fill="#D7D7DB"></path>
                <path d="M221.727273,34.7241379 C221.818182,34.9310345 222.090909,35 222.363636,35 C222.454545,35 222.545455,35 222.636364,34.9310345 C223,34.7931034 223.090909,34.5172414 222.909091,34.2413793 C222.727273,33.9655172 222.545455,33.6896552 222.272727,33.2758621 C222.090909,33 221.636364,32.9310345 221.363636,33.0689655 C221,33.2068966 220.909091,33.5517241 221.090909,33.7586207 C221.363636,34.1724138 221.545455,34.5172414 221.727273,34.7241379 Z" id="Shape" fill="#D7D7DB"></path>
                <path d="M227.632792,29.3394343 C228.795153,28.9400998 230.094262,28.9400998 231.598494,29.2063228 C233.718094,29.6056572 235.974442,30.8702163 238.162416,32.8668885 C238.23079,32.9334443 238.367539,33 238.504287,33 C238.641036,33 238.777784,32.9334443 238.846158,32.8668885 C239.051281,32.6672213 239.051281,32.3344426 238.846158,32.1347754 C236.521436,29.9384359 234.128339,28.6073211 231.803617,28.2079867 C230.162637,27.875208 228.658405,27.9417637 227.359295,28.4076539 C227.085798,28.4742097 226.94905,28.8069884 227.017424,29.0066556 C227.085798,29.2728785 227.359295,29.40599 227.632792,29.3394343 Z" id="Shape" fill="#D7D7DB"></path>
                <path d="M249.482759,42 L250.517241,42 C250.793103,42 251,41.7857143 251,41.5 C251,41.2142857 250.793103,41 250.517241,41 L249.482759,41 C249.206897,41 249,41.2142857 249,41.5 C249,41.7142857 249.206897,42 249.482759,42 Z" id="Shape" fill="#D7D7DB"></path>
                <path d="M195.56116,36 C195.622181,36 195.622181,36 195.56116,36 C195.866266,35.9310345 196.049329,35.7241379 195.988308,35.4482759 C195.927287,35.1034483 195.927287,34.7586207 195.927287,34.4827586 C195.927287,34.2068966 195.683202,34 195.439118,34 C195.378096,34 195.378096,34 195.317075,34 C195.134012,34.0689655 194.950948,34.2758621 195.011969,34.4827586 C195.011969,34.8275862 195.072991,35.1724138 195.072991,35.5172414 C195.072991,35.5862069 195.072991,35.6551724 195.134012,35.6551724 C195.256054,35.862069 195.378096,36 195.56116,36 Z" id="Shape" fill="#D7D7DB"></path>
                <path d="M196.917812,41.7771913 C196.975928,41.6196418 197.034043,41.3833175 196.975928,41.2257679 C196.975928,41.2257679 196.743466,40.5167951 196.511004,39.4139483 C196.452888,39.0988493 196.220426,38.9412997 195.987964,39.0200745 C195.755502,39.0988493 195.639271,39.4139483 195.697386,39.7290474 C195.813617,40.1229212 195.871733,40.5167951 195.987964,40.8318941 L195.464924,40.8318941 C195.406809,40.8318941 195.406809,40.8318941 195.348693,40.8318941 C195.174347,40.9106689 195,41.1469932 195,41.3833175 C195,41.6984165 195.174347,41.9347408 195.406809,41.9347408 L195.52304,41.9347408 L196.569119,41.9347408 C196.743466,42.0922904 196.859697,41.9347408 196.917812,41.7771913 Z" id="Shape" fill="#D7D7DB"></path>
                <path d="M175.166294,46 L264.970917,46 L264.970917,46 C265.519761,46 266,45.5057104 266,44.940808 C266,44.3759056 265.519761,43.881616 264.970917,43.881616 L244.11484,43.881616 C242.262491,40.3509761 237.597315,32.7954066 231.834452,31.6656018 C224.150634,30.1827331 222.641312,38.0207537 222.641312,38.0207537 C222.641312,38.0207537 217.564504,24.3924836 204.598061,26.1578035 C198.697987,27.0051571 196.296793,30.1121203 195.610738,33.5015346 C195.679344,33.5015346 195.679344,33.5015346 195.747949,33.5015346 C196.022371,33.5015346 196.296793,33.713373 196.296793,33.9958242 C196.296793,34.3488882 196.365399,34.7019522 196.365399,34.9844034 C196.365399,35.2668546 196.228188,35.5493058 195.88516,35.5493058 C195.88516,35.5493058 195.816555,35.5493058 195.816555,35.5493058 C195.610738,35.5493058 195.473527,35.4080802 195.336316,35.2668546 C195.199105,37.0321746 195.473527,38.8681073 195.816555,40.2803633 C195.88516,40.2803633 195.88516,40.2803633 195.953766,40.2803633 L196.571216,40.2803633 C196.50261,39.9979121 196.365399,39.7154609 196.228188,39.2917841 C196.159582,39.0093329 196.296793,38.7268817 196.571216,38.6562689 C196.845638,38.5856561 197.12006,38.7268817 197.188665,39.0093329 C197.463087,39.9979121 197.737509,40.6334273 197.737509,40.6334273 C197.806115,40.7746529 197.806115,40.9864913 197.668904,41.1277169 C197.600298,41.2689425 197.394482,41.3395553 197.257271,41.3395553 L196.022371,41.3395553 C196.434004,42.7518113 196.777032,43.7403904 196.845638,43.881616 L175.029083,43.881616 L175.029083,43.881616 C174.480239,43.881616 174,44.3759056 174,44.940808 C174.137211,45.5057104 174.61745,46 175.166294,46 Z" id="Shape" fill="#F9F9FA"></path>
                <path d="M129.417062,7 C129.486572,7 129.486572,7 129.556082,7 C129.764613,7 129.973144,6.87301587 130.042654,6.68253968 C130.320695,5.85714286 131.154818,4.01587302 133.587678,4.01587302 C133.865719,4.01587302 134.21327,4.01587302 134.560821,4.07936508 C136.020537,4.33333333 137.549763,5.22222222 139.078989,6.68253968 C139.28752,6.87301587 139.635071,6.87301587 139.843602,6.68253968 C140.052133,6.49206349 140.052133,6.17460317 139.843602,5.98412698 C138.175355,4.3968254 136.507109,3.44444444 134.769352,3.12698413 C134.352291,3.06349206 134.004739,3 133.587678,3 C130.390205,3 129.278041,5.6031746 129,6.36507937 C129,6.68253968 129.208531,6.93650794 129.417062,7 Z" id="Shape" fill="#D7D7DB"></path>
                <path d="M122.420652,0.835108797 C122.760226,0.890072532 123.031885,0.945036266 123.37146,1 C123.439374,1 123.507289,1 123.507289,1 C123.711034,1 123.914778,0.890072532 123.982693,0.725181329 C124.050608,0.505326392 123.914778,0.285471456 123.643119,0.230507722 C123.303545,0.120580253 122.963971,0.0656165191 122.624396,0.0106527849 C122.352737,-0.0443109493 122.081078,0.120580253 122.013163,0.34043519 C121.945248,0.560290127 122.148993,0.780145063 122.420652,0.835108797 Z" id="Shape" fill="#D7D7DB"></path>
                <path d="M115.616767,3 C115.766286,3 115.915805,2.94327019 115.990565,2.88654038 C116.588642,2.3759721 117.485757,2.03559325 118.607151,1.80867401 C118.906189,1.7519442 119.055708,1.52502497 118.980949,1.29810573 C118.906189,1.07118649 118.607151,0.957726875 118.308112,1.01445668 C116.96244,1.29810573 115.915805,1.7519442 115.168209,2.31924229 C114.94393,2.48943172 114.94393,2.77308076 115.168209,2.94327019 C115.317728,2.94327019 115.467248,3 115.616767,3 Z" id="Shape" fill="#D7D7DB"></path>
                <path d="M146.474576,11 L149.525424,11 C149.79661,11 150,10.7857143 150,10.5 C150,10.2142857 149.79661,10 149.525424,10 L146.474576,10 C146.20339,10 146,10.2142857 146,10.5 C146,10.7857143 146.20339,11 146.474576,11 Z" id="Shape" fill="#D7D7DB"></path>
                <path d="M115.903953,10.8297465 C115.971868,10.7093592 116.039784,10.5287781 115.971868,10.4083907 L115.903953,10.2880033 C115.768122,10.0472286 115.49646,9.92684117 115.224798,10.0472286 C115.156882,10.0472286 115.088966,10.1074222 115.088966,10.1074222 L114.409811,10.1074222 L103.475409,10.1074222 C103.203747,10.1074222 103,10.2880033 103,10.5287781 C103,10.7695528 103.203747,10.9501339 103.475409,10.9501339 L114.613558,10.9501339 L115.428544,10.9501339 C115.632291,11.0705213 115.768122,10.9501339 115.903953,10.8297465 Z" id="Shape" fill="#D7D7DB"></path>
                <path d="M102.969015,15 L152.969765,15 L152.969765,15 C153.519224,15 154,14.5071273 154,13.9438443 C154,13.3805612 153.519224,12.8876886 152.969765,12.8876886 L141.156401,12.8876886 C140.126166,10.9161979 137.516236,6.76198544 134.356848,6.12829201 C130.098543,5.28336744 129.205672,9.64881106 129.205672,9.64881106 C129.205672,9.64881106 126.389696,2.04448992 119.178049,3.10064564 C113.889508,3.80474944 113.683461,7.81814115 114.23292,10.4937356 L114.919744,10.4937356 C114.988426,10.4233252 114.988426,10.4233252 115.057108,10.4233252 C115.331838,10.2825045 115.606567,10.4233252 115.743932,10.7049668 L115.812614,10.8457875 C115.881297,10.9866083 115.881297,11.1978394 115.743932,11.3386602 C115.67525,11.479481 115.469202,11.5498913 115.331838,11.5498913 L114.50765,11.5498913 C114.713697,12.3948159 114.988426,12.8876886 114.988426,12.958099 L102.969015,12.8876886 C102.969015,12.8876886 102.969015,12.8876886 102.969015,12.8876886 C102.969015,12.8876886 102.969015,12.8876886 102.969015,12.8876886 L102.762968,12.8876886 L102.969015,12.8876886 C102.419556,12.8876886 102.007462,13.3805612 102.007462,13.9438443 C101.93878,14.5071273 102.350874,15 102.969015,15 Z" id="Shape" fill="#F9F9FA"></path>
                <path d="M146.1,1 C146,1 146,1.1 146,1.1 L146.1,1 Z" id="Shape" fill="#FFFFFF"></path>
                <path d="M60.8571429,48 C60.9285714,47.8051948 61,47.6753247 61,47.4805195 L61,44.3636364 C61,43.5844156 60.3571429,43 59.5,43 C58.6428571,43 58,43.5844156 58,44.3636364 L58,47.4155844 C58,47.6103896 58.0714286,47.8701299 58.1428571,48 C58.6428571,47.8701299 59.1428571,47.8051948 59.7142857,47.8051948 C60.1428571,47.8701299 60.5,47.9350649 60.8571429,48 Z" id="Shape" fill="url(#linearGradient-15)"></path>
                <path d="M62.1372785,52.2800435 C62.4160345,52.7481733 62.9038576,52.9488003 63.4613696,52.9488003 C63.7401257,52.9488003 64.0188817,52.8819246 64.2976377,52.6812976 C64.9945278,52.2131678 65.2035948,51.2769083 64.7854608,50.6081515 C64.7157718,50.5412758 63.3219916,48.5350054 60.6738093,48.0668757 C60.3253643,48 59.9769192,48 59.5587852,48 C59.0012731,48 58.5134501,48.0668757 58.025627,48.200627 C55.5865117,48.8025082 54.3321096,50.5412758 54.2624206,50.6750272 C53.7745975,51.343784 53.9836646,52.2800435 54.7502437,52.7481733 C55.5168227,53.216303 56.4227798,53.015676 56.9106029,52.2800435 C56.9106029,52.2800435 57.81656,51.0094056 59.5587852,51.0094056 C61.2313214,51.0094056 62.0675895,52.2131678 62.1372785,52.2800435 Z M56.1440238,52.0125408 C55.8652678,52.4806705 55.1683777,52.6144219 54.6805546,52.2800435 C54.1927316,52.0125408 54.0533536,51.343784 54.4017986,50.8756542 C54.4714876,50.8087785 56.0743348,48.4681298 59.2103401,48.4681298 C62.3463455,48.4681298 63.9491927,50.7419029 64.0188817,50.8756542 C64.2976377,51.343784 64.2279487,51.9456651 63.7401257,52.2800435 C63.5310586,52.4137949 63.3916806,52.4137949 63.1826136,52.4137949 C62.8341686,52.4137949 62.4857235,52.2800435 62.2766565,51.9456651 C62.2069675,51.8787894 61.2313214,50.4744001 59.2103401,50.4744001 C57.2590479,50.4744001 56.2137128,52.0125408 56.1440238,52.0125408 Z" id="Shape" fill="#F9F9FA"></path>
                <path d="M63.0591085,51.5052502 C63.2687272,51.7748848 63.6180916,51.9771108 63.9674561,51.9771108 C64.1770747,51.9771108 64.3866934,51.9097021 64.5264392,51.8422935 C65.0155494,51.5726589 65.1552952,50.8985723 64.8059308,50.4267117 C64.7360579,50.359303 63.1289814,48 59.9847013,48 C56.8404211,48 55.2333446,50.2918944 55.1634717,50.4267117 C54.8839802,50.8985723 54.9538531,51.5052502 55.4429633,51.8422935 C55.9320735,52.1119281 56.5609296,52.0445195 56.910294,51.5726589 C56.910294,51.5726589 57.9583874,50.0896684 59.9847013,50.0896684 C61.9411422,49.9548511 62.9892356,51.4378415 63.0591085,51.5052502 Z" id="Shape" fill="url(#linearGradient-16)"></path>
                <path d="M27.8571429,48 C27.9285714,47.8051948 28,47.6753247 28,47.4805195 L28,44.3636364 C28,43.5844156 27.3571429,43 26.5,43 C25.6428571,43 25,43.5844156 25,44.3636364 L25,47.4155844 C25,47.6103896 25.0714286,47.8701299 25.1428571,48 C25.6428571,47.8701299 26.1428571,47.8051948 26.7142857,47.8051948 C27.0714286,47.8701299 27.5,47.9350649 27.8571429,48 Z" id="Shape" fill="url(#linearGradient-17)"></path>
                <path d="M27.6317945,48.0668757 C27.2855431,48 26.9392917,48 26.52379,48 C25.9697877,48 25.4850357,48.0668757 25.0002838,48.200627 C22.5765239,48.8025082 21.3300188,50.5412758 21.2607685,50.6750272 C20.7760166,51.343784 20.9837674,52.2800435 21.7455205,52.7481733 C22.4380233,53.216303 23.4075273,53.015676 23.8922793,52.2800435 C23.8922793,52.2800435 24.7925329,51.0094056 26.52379,51.0094056 C28.255047,51.0094056 29.1553007,52.2131678 29.1553007,52.2800435 C29.4323018,52.7481733 29.9170538,52.9488003 30.471056,52.9488003 C30.7480572,52.9488003 31.0250583,52.8819246 31.3020594,52.6812976 C31.9945622,52.2131678 32.2023131,51.2769083 31.7868114,50.6081515 C31.6483108,50.4744001 30.2633052,48.4681298 27.6317945,48.0668757 Z M30.7480572,52.2131678 C30.5403063,52.3469192 30.4018058,52.3469192 30.1940549,52.3469192 C29.8478035,52.3469192 29.5015521,52.2131678 29.2938012,51.8787894 C29.224551,51.8119137 28.255047,50.4075245 26.2467888,50.4075245 C24.2385307,50.4075245 23.1997764,51.8787894 23.1997764,51.8787894 C22.9227753,52.3469192 22.2302725,52.4806705 21.7455205,52.1462921 C21.2607685,51.8787894 21.122268,51.2100326 21.4685194,50.7419029 C21.5377697,50.6750272 23.1305261,48.3343784 26.2467888,48.3343784 C29.3630515,48.3343784 30.955808,50.6081515 31.0250583,50.7419029 C31.3713097,51.2769083 31.2328091,51.9456651 30.7480572,52.2131678 Z" id="Shape" fill="#F9F9FA"></path>
                <path d="M26.9847013,48 C23.8404211,48 22.2333446,50.2666667 22.1634717,50.4 C21.8839802,50.8666667 21.9538531,51.4666667 22.4429633,51.8 C22.9320735,52.0666667 23.5609296,52 23.910294,51.5333333 C23.910294,51.5333333 24.9583874,50.0666667 26.9847013,50.0666667 C29.0110151,50.0666667 30.0591085,51.5333333 30.0591085,51.5333333 C30.2687272,51.8 30.6180916,52 30.9674561,52 C31.1770747,52 31.3866934,51.9333333 31.5264392,51.8666667 C32.0155494,51.6 32.1552952,50.9333333 31.8059308,50.4666667 C31.8059308,50.2666667 30.1988543,48 26.9847013,48 Z" id="Shape" fill="url(#linearGradient-18)"></path>
                <path d="M70.9551885,131.27291 C70.8859901,131.06517 70.6091967,130.9613 70.3324032,131.013235 C70.0556097,131.06517 69.7096178,131.16904 69.363626,131.220975 C69.0868325,131.27291 68.9484357,131.48065 69.0176341,131.68839 C69.0868325,131.844195 69.2944276,132 69.5020227,132 C69.5712211,132 69.5712211,132 69.6404194,132 C69.9864113,131.948065 70.3324032,131.844195 70.678395,131.79226 C70.8859901,131.68839 71.0935853,131.48065 70.9551885,131.27291 Z" id="Shape" fill="#D7D7DB"></path>
                <path d="M101.631495,131.025487 C100.649718,130.765617 99.808195,130.440779 98.7562914,130.050974 C98.4757837,129.921039 98.1952761,130.050974 98.0550223,130.310844 C97.9147684,130.570714 98.0550223,130.830584 98.3355299,130.96052 C99.3874336,131.415292 100.36921,131.74013 101.350987,132 C101.421114,132 101.421114,132 101.491241,132 C101.701622,132 101.912002,131.870065 101.982129,131.675162 C102.052256,131.350325 101.912002,131.090455 101.631495,131.025487 Z" id="Shape" fill="#D7D7DB"></path>
                <path d="M162.377203,127.025554 C161.512269,127.434412 160.713869,127.843271 159.982002,128.252129 C157.653335,129.546848 155.457734,130.773424 151.465733,130.977853 C151.1996,130.977853 151,131.250426 151,131.522998 C151,131.795571 151.266133,132 151.465733,132 C151.465733,132 151.465733,132 151.465733,132 C155.657334,131.727428 158.052535,130.432709 160.381202,129.13799 C161.113069,128.729131 161.911469,128.320273 162.709869,127.911414 C162.976003,127.775128 163.042536,127.502555 162.976003,127.229983 C162.909469,127.025554 162.643336,126.957411 162.377203,127.025554 Z" id="Shape" fill="#D7D7DB"></path>
                <path d="M106.575676,131.0625 C106.233138,131.0625 105.8906,131.0625 105.548061,131 C105.274031,131 105,131.1875 105,131.4375 C105,131.6875 105.205523,131.9375 105.479554,131.9375 C105.822092,131.9375 106.16463,132 106.507169,132 C106.507169,132 106.507169,132 106.507169,132 C106.781199,132 106.986722,131.8125 106.986722,131.5625 C107.05523,131.25 106.849707,131.0625 106.575676,131.0625 Z" id="Shape" fill="#D7D7DB"></path>
                <path d="M91.5921672,126.580645 C89.9608359,126.193548 88.1935603,126 86.2223683,126 C86.2223683,126 86.2223683,126 86.2223683,126 C83.5714549,126 81.3963464,126.322581 79.3571823,127.032258 C79.0852937,127.096774 78.9493495,127.419355 79.0173216,127.677419 C79.0852937,127.870968 79.2892102,128 79.4931266,128 C79.5610987,128 79.6290709,128 79.697043,128 C81.668235,127.354839 83.7073991,127.032258 86.2223683,127.032258 C86.2223683,127.032258 86.2223683,127.032258 86.2223683,127.032258 C88.1255881,127.032258 89.8248916,127.225806 91.3882508,127.612903 C91.6601393,127.677419 91.9320279,127.548387 92,127.290323 C92,126.903226 91.8640557,126.645161 91.5921672,126.580645 Z" id="Shape" fill="#D7D7DB"></path>
                <path d="M55.2228261,129.9375 C55.2934783,130 55.3641304,130 55.4347826,130 C55.6467391,130 55.7880435,129.9375 55.9293478,129.75 C56.0706522,129.5 56,129.25 55.7173913,129.125 L54.7282609,128.6875 C51.9728261,127.375 49.1467391,126 43.4945652,126 C43.2119565,126 43,126.1875 43,126.4375 C43,126.6875 43.2119565,126.875 43.4945652,126.875 C48.8641304,126.875 51.4782609,128.125 54.2336957,129.4375 L55.2228261,129.9375 Z" id="Shape" fill="#D7D7DB"></path>
                <path d="M65.5333333,132 C65.8,132 66,131.75 66,131.5 C66,131.25 65.7333333,131.0625 65.4666667,131.0625 C64.5333333,131.125 63.4666667,131.0625 62.5333333,131 C62.2666667,131 62,131.1875 62,131.4375 C62,131.6875 62.2,131.9375 62.4666667,131.9375 C63.0666667,132 63.7333333,132 64.3333333,132 C64.8,132 65.2,132 65.5333333,132 Z" id="Shape" fill="#D7D7DB"></path>
                <path d="M142.652592,130.622881 C142.305184,130.439265 142.027258,130.255649 141.749332,130.072033 C141.471405,129.888418 141.193479,130.072033 141.054516,130.439265 C140.915553,130.806497 141.054516,131.173729 141.332442,131.357344 C141.67985,131.54096 141.957776,131.724576 142.305184,131.908192 C142.374666,131.908192 142.444147,132 142.513629,132 C142.722074,132 142.930518,131.816384 143,131.54096 C143,131.173729 142.861037,130.714689 142.652592,130.622881 Z" id="Shape" fill="#D7D7DB"></path>
                <path d="M192.534651,131.709946 C190.739733,131.709946 189.144251,131.451935 187.615247,131.021917 C187.349333,130.935913 187.083419,131.10792 187.016941,131.451935 C186.950463,131.795949 187.083419,132.139964 187.349333,132.225967 C188.878337,132.741989 190.606776,133 192.468173,133 C192.734086,133 193,132.741989 193,132.397975 C193,132.05396 192.800565,131.709946 192.534651,131.709946 Z" id="Shape" fill="#D7D7DB"></path>
                <path d="M179.670475,127.308988 C179.326116,127.210272 179.050629,127.111556 178.706269,127.012839 C178.430782,126.963481 178.155295,127.062198 178.017551,127.210272 C177.948679,127.407704 178.086423,127.605136 178.36191,127.703852 C178.706269,127.802568 178.981757,127.851926 179.257244,127.950642 C179.326116,127.950642 179.394988,128 179.46386,128 C179.670475,128 179.877091,127.901284 179.945962,127.75321 C180.083706,127.605136 179.945962,127.407704 179.670475,127.308988 Z" id="Shape" fill="#D7D7DB"></path>
                <path d="M126.470668,126.010704 C122.169846,126.28409 119.787852,127.582674 117.472025,128.881258 C116.744194,129.291337 116.016362,129.701416 115.288531,130.043149 C115.023865,130.179842 114.957698,130.453228 115.023865,130.726614 C115.090031,130.931653 115.288531,131 115.48703,131 C115.553197,131 115.619363,131 115.68553,130.931653 C116.479528,130.521574 117.207359,130.111495 117.935191,129.701416 C120.251018,128.402832 122.434512,127.172595 126.536835,126.967555 C126.801501,126.967555 127,126.694169 127,126.420783 C127,126.215744 126.735334,125.942358 126.470668,126.010704 Z" id="Shape" fill="#D7D7DB"></path>
                <path d="M171.6,126.882353 L171.8,126.882353 C172.733333,126.882353 173.666667,126.941176 174.466667,127 C174.466667,127 174.533333,127 174.533333,127 C174.8,127 175,126.823529 175,126.588235 C175,126.352941 174.866667,126.117647 174.533333,126.117647 C173.666667,126.058824 172.733333,126 171.733333,126 L171.466667,126 C171.2,126 171,126.176471 171,126.470588 C171.133333,126.705882 171.333333,126.882353 171.6,126.882353 C171.6,126.882353 171.6,126.882353 171.6,126.882353 Z" id="Shape" fill="#D7D7DB"></path>
                <path d="M138.215032,128.937994 C138.28768,129 138.360329,129 138.432977,129 C138.650921,129 138.796217,128.937994 138.941514,128.751975 C139.08681,128.50395 138.941514,128.255925 138.723569,128.131913 C137.561199,127.635863 136.616773,127.263826 135.672347,127.015801 C135.381754,126.953795 135.091161,127.077807 135.018513,127.325832 C134.945865,127.573857 135.091161,127.821882 135.381754,127.883888 C136.253532,128.131913 137.12531,128.441944 138.215032,128.937994 Z" id="Shape" fill="#D7D7DB"></path>
                <path d="M156.304985,141.037975 C156.033887,141.088608 155.695015,141.189873 155.356143,141.240506 C155.085046,141.291139 154.949497,141.493671 155.017271,141.696203 C155.085046,141.848101 155.288369,142 155.491692,142 C155.559466,142 155.559466,142 155.627241,142 C155.966113,141.949367 156.304985,141.848101 156.643857,141.797468 C156.914954,141.746835 157.050503,141.544304 156.982729,141.341772 C156.914954,141.037975 156.576082,140.936709 156.304985,141.037975 Z" id="Shape" fill="#D7D7DB"></path>
                <path d="M151.516161,142.071519 C150.569503,142.133418 149.487607,142.071519 148.540948,142.00962 C148.270474,141.947721 148,142.195316 148,142.442911 C148,142.690506 148.202855,142.938101 148.473329,142.938101 C149.081896,143 149.758081,143 150.366647,143 C150.772358,143 151.178069,143 151.516161,143 C151.786635,143 151.989491,142.752405 151.989491,142.50481 C152.057109,142.257215 151.786635,142.071519 151.516161,142.071519 Z" id="Shape" fill="#D7D7DB"></path>
                <path d="M141.717391,139.125 C141.36413,139 141.081522,138.8125 140.728261,138.6875 C137.972826,137.375 135.146739,136 129.494565,136 C129.211957,136 129,136.1875 129,136.4375 C129,136.6875 129.211957,136.875 129.494565,136.875 C134.86413,136.875 137.407609,138.125 140.233696,139.4375 C140.586957,139.625 140.869565,139.75 141.222826,139.9375 C141.293478,140 141.36413,140 141.434783,140 C141.646739,140 141.788043,139.9375 141.929348,139.75 C142.070652,139.5625 142,139.25 141.717391,139.125 Z" id="Shape" fill="#D7D7DB"></path>
                <path d="M177.618139,136.580645 C175.99222,136.193548 174.230807,136 172.198408,136 C172.198408,136 172.198408,136 172.198408,136 C169.556289,136 167.388397,136.322581 165.355997,137.032258 C165.085011,137.096774 164.949518,137.419355 165.017264,137.677419 C165.085011,137.870968 165.288251,138 165.491491,138 C165.559237,138 165.626984,138 165.694731,138 C167.659383,137.354839 169.691782,137.032258 172.198408,137.032258 C172.198408,137.032258 172.198408,137.032258 172.198408,137.032258 C174.095314,137.032258 175.78898,137.225806 177.347153,137.612903 C177.618139,137.677419 177.889126,137.548387 177.956873,137.290323 C178.092366,136.903226 177.889126,136.645161 177.618139,136.580645 Z" id="Shape" fill="#D7D7DB"></path>
                <path d="M192.557634,142.0625 C192.219018,142.0625 191.880402,142.0625 191.541786,142 C191.270893,142 191,142.1875 191,142.4375 C191,142.6875 191.20317,142.9375 191.474062,142.9375 C191.812679,142.9375 192.151295,143 192.489911,143 C192.489911,143 192.489911,143 192.489911,143 C192.760803,143 192.963973,142.8125 192.963973,142.5625 C193.09942,142.25 192.828527,142.0625 192.557634,142.0625 Z" id="Shape" fill="#D7D7DB"></path>
                <path d="M212.470668,136 C208.169846,136.273973 205.787852,137.575342 203.472025,138.876712 C202.744194,139.287671 202.016362,139.69863 201.288531,140.041096 C201.023865,140.178082 200.957698,140.452055 201.023865,140.726027 C201.090031,140.931507 201.288531,141 201.48703,141 C201.553197,141 201.619363,141 201.68553,140.931507 C202.479528,140.520548 203.207359,140.109589 203.935191,139.69863 C206.251018,138.39726 208.434512,137.164384 212.536835,136.958904 C212.801501,136.958904 213,136.684932 213,136.410959 C213,136.205479 212.735334,136 212.470668,136 Z" id="Shape" fill="#D7D7DB"></path>
                <path d="M187.635235,142.025487 C186.652447,141.765617 185.810057,141.440779 184.75707,141.050974 C184.476274,140.921039 184.195477,141.050974 184.055079,141.310844 C183.914681,141.570714 184.055079,141.830584 184.335875,141.96052 C185.388862,142.415292 186.37165,142.74013 187.354438,143 C187.424637,143 187.424637,143 187.494836,143 C187.705434,143 187.916031,142.870065 187.98623,142.675162 C188.056429,142.350325 187.845832,142.090455 187.635235,142.025487 Z" id="Shape" fill="#D7D7DB"></path>
                <path d="M87.4952543,136 C84.7441802,136 82.4868887,136.322581 80.3706779,137.032258 C80.0885164,137.096774 79.9474357,137.419355 80.0179761,137.677419 C80.0885164,137.870968 80.3001375,138 80.5117586,138 C80.582299,138 80.6528393,138 80.7233797,138 C82.7690501,137.354839 84.8852609,137.032258 87.4952543,137.032258 C87.4952543,137.032258 87.4952543,137.032258 87.4952543,137.032258 C87.7774157,137.032258 87.9890368,136.83871 87.9890368,136.580645 C88.0595772,136.193548 87.7774157,136 87.4952543,136 Z" id="Shape" fill="#D7D7DB"></path>
                <path d="M56.730879,139.125 C56.3772435,139 56.0943351,138.8125 55.7406995,138.6875 C52.9823424,137.375 50.1532582,136 44.4950897,136 C44.2121813,136 44,136.1875 44,136.4375 C44,136.6875 44.2121813,136.875 44.4950897,136.875 C49.8703498,136.875 52.4872527,138.125 55.2456098,139.4375 C55.5992453,139.625 55.8821537,139.75 56.2357893,139.9375 C56.3065164,140 56.3772435,140 56.4479706,140 C56.6601519,140 56.8016061,139.9375 56.9430603,139.75 C57.0845145,139.5625 56.9430603,139.25 56.730879,139.125 Z" id="Shape" fill="#D7D7DB"></path>
                <path d="M72.3049848,141.037975 C72.0338872,141.088608 71.6950152,141.189873 71.3561432,141.240506 C71.0850456,141.291139 70.9494968,141.493671 71.0172712,141.696203 C71.0850456,141.848101 71.2883688,142 71.491692,142 C71.5594664,142 71.5594664,142 71.6272408,142 C71.9661128,141.949367 72.3049848,141.848101 72.6438568,141.797468 C72.9149544,141.746835 73.0505032,141.544304 72.9827288,141.341772 C72.84718,141.037975 72.5760824,140.936709 72.3049848,141.037975 Z" id="Shape" fill="#D7D7DB"></path>
                <path d="M67.5161615,142.071519 C66.5695026,142.133418 65.4876068,142.071519 64.5409479,142.00962 C64.270474,141.947721 64,142.195316 64,142.442911 C64,142.690506 64.2028555,142.938101 64.4733294,142.938101 C65.0818958,143 65.7580807,143 66.3666471,143 C66.7723581,143 67.178069,143 67.5161615,143 C67.7866354,143 67.9894909,142.752405 67.9894909,142.50481 C68.0571094,142.257215 67.7866354,142.071519 67.5161615,142.071519 Z" id="Shape" fill="#D7D7DB"></path>
                <path d="M278.083006,121.964912 C272.998216,121.964912 270.524535,120.561404 267.913427,119.157895 C265.164892,117.614035 262.347644,116.070175 256.781861,116.070175 C256.438294,116.070175 256.026014,116.070175 255.682447,116.070175 C254.10204,116.140351 252.796486,116.350877 251.628358,116.631579 C250.941225,116.77193 250.254091,116.982456 249.635671,117.192982 C248.123977,117.754386 246.818423,118.45614 245.581582,119.157895 C242.970474,120.631579 240.496793,121.964912 235.412003,121.964912 C230.327214,121.964912 227.853533,120.561404 225.242425,119.157895 C222.49389,117.614035 219.676642,116.070175 214.110859,116.070175 C208.545076,116.070175 205.727828,117.614035 202.979293,119.157895 C200.368185,120.631579 197.894504,121.964912 192.809714,121.964912 C191.91644,121.964912 191.09188,121.894737 190.336033,121.824561 C188.893052,121.684211 187.656212,121.403509 186.556798,120.982456 C185.113817,120.491228 183.876976,119.789474 182.640136,119.087719 C182.159142,118.807018 181.609435,118.526316 181.128441,118.245614 C179.273181,117.263158 177.143066,116.421053 173.982251,116.140351 C173.226404,116.070175 172.401844,116 171.50857,116 C170.890149,116 170.340443,116 169.790736,116.070175 C169.034888,116.140351 168.347755,116.210526 167.729334,116.280702 C164.499806,116.77193 162.369692,117.964912 160.377004,119.087719 C157.765896,120.561404 155.292215,121.894737 150.207425,121.894737 C145.397489,121.894737 142.923808,120.631579 140.450127,119.298246 C140.3127,119.22807 140.175273,119.157895 140.037847,119.087719 C137.289312,117.54386 134.472064,116 128.906281,116 C128.906281,116 128.906281,116 128.906281,116 C128.906281,116 128.906281,116 128.837567,116 C123.271785,116 120.454536,117.54386 117.706002,119.087719 C116.056881,120 114.476473,120.842105 112.277645,121.403509 C110.972091,121.684211 109.460397,121.894737 107.536423,121.894737 C102.451634,121.894737 99.9779523,120.491228 97.3668443,119.087719 C95.7177234,118.175439 93.9998892,117.192982 91.6636347,116.631579 C91.0452143,116.491228 90.2893673,116.350877 89.5335202,116.210526 C88.571533,116.070175 87.4721191,116 86.2352785,116 C85.8917116,116 85.5481448,116 85.2045779,116 C81.0817758,116.140351 78.6080945,117.192982 76.4092667,118.385965 C75.9969865,118.596491 75.5159929,118.877193 75.1037127,119.087719 C74.3478656,119.508772 73.5920185,119.929825 72.7674581,120.280702 C72.1490378,120.561404 71.5306174,120.842105 70.8434838,121.052632 C69.2630763,121.54386 67.4078153,121.894737 64.934134,121.894737 C59.8493447,121.894737 57.3756634,120.491228 54.7645553,119.087719 C52.0160206,117.54386 49.1987724,116 43.6329895,116 C38.3420601,116 35.5248119,117.403509 32.9137039,118.807018 C32.7762772,118.877193 32.6388504,118.947368 32.5014237,119.017544 C31.9517167,119.298246 31.4020098,119.649123 30.8523028,119.929825 C29.6841755,120.491228 28.4473349,121.052632 26.8669274,121.403509 C25.5613734,121.684211 24.1183926,121.894737 22.331845,121.894737 C17.2470557,121.894737 14.7733744,120.491228 12.1622664,119.087719 C9.4137316,117.54386 6.59648345,116 1.03070054,116 C0.480993585,116 0,116.491228 0,117.052632 C0,117.614035 0.480993585,118.105263 1.03070054,118.105263 C6.11548987,118.105263 8.58917116,119.508772 11.2002792,120.912281 C13.948814,122.45614 16.7660621,124 22.331845,124 C27.8976279,124 30.7148761,122.45614 33.4634109,120.912281 C36.0745189,119.438596 38.5482002,118.105263 43.6329895,118.105263 C48.7177788,118.105263 51.1914601,119.508772 53.8025682,120.912281 C56.5511029,122.45614 59.3683511,124 64.934134,124 C70.4999169,124 73.3171651,122.45614 76.0656998,120.912281 C78.6768079,119.438596 81.1504892,118.105263 86.2352785,118.105263 C91.3200678,118.105263 93.7937491,119.508772 96.4048571,120.912281 C99.1533919,122.45614 101.97064,124 107.536423,124 C113.102206,124 115.919454,122.45614 118.667989,120.912281 C121.279097,119.438596 123.752778,118.105263 128.837567,118.105263 C133.922357,118.105263 136.396038,119.508772 139.007146,120.912281 C141.755681,122.45614 144.572929,124 150.138712,124 C150.138712,124 150.138712,124 150.138712,124 C150.138712,124 150.138712,124 150.138712,124 C155.704495,124 158.521743,122.45614 161.270278,120.912281 C163.881386,119.438596 166.355067,118.105263 171.439856,118.105263 C176.524646,118.105263 178.998327,119.508772 181.609435,120.912281 C184.35797,122.45614 187.175218,124 192.741001,124 C198.306784,124 201.124032,122.45614 203.872567,120.912281 C206.483675,119.438596 208.957356,118.105263 214.042145,118.105263 C219.126935,118.105263 221.600616,119.508772 224.211724,120.912281 C226.960259,122.45614 229.777507,124 235.34329,124 C240.909073,124 243.726321,122.45614 246.474856,120.912281 C249.085964,119.438596 251.559645,118.105263 256.644434,118.105263 C261.729224,118.105263 264.202905,119.508772 266.814013,120.912281 C269.562548,122.45614 272.379796,124 277.945579,124 C278.495286,124 278.976279,123.508772 278.976279,122.947368 C279.113706,122.45614 278.632713,121.964912 278.083006,121.964912 Z" id="Shape" fill="#D7D7DB"></path>
            </g>
        </g>
    </g>
</svg>