<?xml version="1.0" encoding="utf-8"?>
<!-- Generator: Adobe Illustrator 21.1.0, SVG Export Plug-In . SVG Version: 6.00 Build 0)  -->
<svg version="1.1" id="Layer_1" xmlns="http://www.w3.org/2000/svg" xmlns:xlink="http://www.w3.org/1999/xlink" x="0px" y="0px"
	 viewBox="0 0 275 141" style="enable-background:new 0 0 275 141;" xml:space="preserve">
<style type="text/css">
	.st0{fill:#EAEAEE;}
	.st1{fill:#FFFFFF;}
	.st2{fill:url(#SVGID_1_);}
	.st3{fill:url(#SVGID_2_);}
	.st4{fill:url(#SVGID_3_);}
	.st5{fill:url(#SVGID_4_);}
	.st6{fill:url(#SVGID_5_);}
	.st7{fill:url(#SVGID_6_);}
	.st8{fill:url(#SVGID_7_);}
	.st9{fill:url(#SVGID_8_);}
	.st10{fill:url(#SVGID_9_);}
	.st11{fill:url(#SVGID_10_);}
	.st12{fill:url(#SVGID_11_);}
	.st13{fill:url(#SVGID_12_);}
	.st14{fill:url(#SVGID_13_);}
	.st15{fill:url(#SVGID_14_);}
	.st16{fill:url(#SVGID_15_);}
	.st17{fill:#F9F9FA;}
	.st18{fill:url(#SVGID_16_);}
	.st19{fill:url(#SVGID_17_);}
	.st20{fill:url(#SVGID_18_);}
</style>
<g>
	<path class="st0" d="M157.9,61.1c0.6,0,1-0.4,1-1s-0.4-1-1-1h-52c-0.2,0.6-0.5,1.3-0.7,2H157.9z"/>
	<path class="st0" d="M136.5,55c-0.3,0-0.5,0.2-0.5,0.5s0.2,0.5,0.5,0.5h12c0.3,0,0.5-0.2,0.5-0.5s-0.2-0.5-0.5-0.5H136.5z"/>
	<path class="st0" d="M109.8,64.6c-0.3,0-0.5,0.2-0.5,0.5s0.2,0.5,0.5,0.5h3c0.3,0,0.5-0.2,0.5-0.5s-0.2-0.5-0.5-0.5H109.8z"/>
	<path class="st0" d="M104.8,64.6c-0.3,0-0.5,0.2-0.5,0.5s0.2,0.5,0.5,0.5h1c0.3,0,0.5-0.2,0.5-0.5s-0.2-0.5-0.5-0.5H104.8z"/>
	<path class="st0" d="M120.8,64.6c-0.3,0-0.5,0.2-0.5,0.5s0.2,0.5,0.5,0.5h12c0.3,0,0.5-0.2,0.5-0.5s-0.2-0.5-0.5-0.5H120.8z"/>
	<path class="st1" d="M61.3,96c4.6,0.3,8.6-1.8,11.5-3.9c3.3-5.2,8.6-11.2,16.5-18.1c10-8.6,14-24.3,13-31l-0.6,1.4
		c-0.1,0.2-0.3,0.3-0.5,0.3c-0.1,0-0.1,0-0.2,0c-0.3-0.1-0.4-0.4-0.3-0.6l1.1-2.6c0,0,0,0,0-0.1l0.4-1.2l-1.1-0.3
		c-1.6-3.1-3.7-5.9-6.1-8.6c-0.1,0.8-0.2,1.4-0.2,1.6c-0.1,0.2-0.3,0.3-0.5,0.3c-0.1,0-0.1,0-0.2,0c-0.3-0.1-0.4-0.4-0.3-0.6
		c0.1-0.2,0.2-1.1,0.3-2.2c0,0-0.1-0.1-0.1-0.1L94,26.4l-3.9,0.1c-3.2-2.7-6.8-5-10.4-7L78.2,14l-4.7,1.3l2.3,1
		c0.3,0.1,0.4,0.4,0.3,0.7c-0.1,0.2-0.3,0.3-0.5,0.3c-0.1,0-0.1,0-0.2,0L72,15.7l-0.5,0.1c-5.4-2-10.7-3.2-14.9-3.2
		c-0.5,0-1,0-1.5,0.1c-7.8,0.5-20.6,10.5-30.8,20.5c0,0,0,0,0,0c-3,3.3-10.4,12.1-11.8,19.3C10.8,61,15,70.8,21.9,74.3
		c8,4.2,25.6,2,31.5,1.1c1.2-0.4,1.8-0.7,1.9-0.8c0.5-0.2,1.1,0,1.3,0.5c0.2,0.5,0,1.1-0.5,1.3c-0.1,0.1-1.2,0.5-2.9,1.2
		c-0.6,1.3-2,4.6-1.8,8.2C51.5,90.5,53.7,95.5,61.3,96z M31.2,51.2c-0.3,0.2-0.5,0.2-0.8,0.2c-0.5,0-1-0.2-1.3-0.7
		c0,0-0.9-1.3-2.5-1.3c-1.7,0-2.5,1.3-2.5,1.3c-0.4,0.7-1.4,0.9-2.1,0.4c-0.7-0.5-0.9-1.4-0.4-2.1c0.1-0.1,1.3-1.9,3.6-2.5
		C25,46.4,25,46.2,25,46v-3.2c0-0.8,0.6-1.4,1.4-1.4c0.8,0,1.4,0.6,1.4,1.4V46c0,0.2,0,0.4-0.1,0.6c2.6,0.5,3.9,2.4,4,2.5
		C32.1,49.8,31.9,50.7,31.2,51.2z M56.2,50.7c-0.5,0.7-1.4,0.9-2.1,0.4s-0.9-1.4-0.4-2.1c0.1-0.1,1.3-1.9,3.6-2.5
		c-0.1-0.2-0.2-0.4-0.2-0.6v-3.2c0-0.8,0.6-1.4,1.4-1.4c0.8,0,1.4,0.6,1.4,1.4V46c0,0.2,0,0.4-0.1,0.6c2.6,0.5,3.9,2.4,4,2.5
		c0.5,0.7,0.3,1.6-0.4,2.1c-0.3,0.2-0.5,0.2-0.8,0.2c-0.5,0-1-0.2-1.3-0.7c0,0-0.9-1.3-2.5-1.3C57.1,49.4,56.2,50.7,56.2,50.7z"/>
	<path class="st1" d="M30.5,116.6c0.4-12.8,4.5-24.5,12.4-34.7c-2.6,0.4-5.6,0.6-8.7,0.6c-3.6,0-6.7-0.3-7.8-0.4
		c-6.7-0.9-10.8-3.2-15-8.5C8,69.4,4.2,60.4,6,53.4c1.2-4.7,4.6-9.1,7.3-11.9c3.7-5.1,8.5-9.5,8.6-9.7c0.5-0.4,1-0.7,1.7-0.7
		c5.7-5.5,21.2-19.6,31.3-20.3c0.5,0,1.1-0.1,1.7-0.1c4.4,0,9.6,1.1,15,3.1l6-1.6c0.2,0,0.4-0.1,0.5-0.1c0.3,0,0.7,0.1,1,0.3
		c0.5,0.3,0.8,0.7,0.9,1.2l1.3,4.7c3.4,1.9,6.5,4,9.4,6.3l3.1-0.1c0,0,0,0,0,0c0.5,0,1,0.2,1.4,0.6c0.4,0.4,0.6,0.9,0.6,1.4l0.1,3
		c2.7,2.8,4.8,5.8,6.5,8.8l0.3,0.1c0.5,0.2,0.9,0.5,1.2,1c0.2,0.5,0.3,1,0.1,1.5l-0.2,0.5c1,3.4,0.4,9.2-1.5,15.4
		c-1.4,4.5-4.9,12.9-11.8,18.8C78.9,85.6,72,94.9,70,103.1c-1.4,6,0.1,10.4,1.4,13.8c0.8-0.4,1.5-0.8,2.3-1.2
		c0.4-0.2,0.8-0.4,1.3-0.7c-2.5-6.4-4.7-16.9,18.2-36.5c6.2-5.3,9.9-12.4,11.9-17.5c0.3-0.7,0.5-1.4,0.7-2c0.1-0.4,0.3-0.8,0.4-1.2
		c0.8-2.5,3.1-10.5,1.9-16.6c0.3-1.3,0.1-2.7-0.6-3.9c-0.5-1-1.3-1.8-2.2-2.3c-1.5-2.5-3.3-5-5.4-7.3l0-1.5c0-1.6-0.7-3.1-1.9-4.2
		c-1.1-1.1-2.6-1.7-4.1-1.7c0,0-0.1,0-0.1,0l-1.7,0c-2.3-1.8-4.7-3.4-7.3-4.9l-0.9-3.2c-0.4-1.5-1.4-2.8-2.8-3.6
		c-0.9-0.5-1.9-0.8-3-0.8c-0.5,0-1.1,0.1-1.6,0.2l-4.8,1.3c-5.5-1.9-10.7-2.9-15.2-2.9h0c-0.7,0-1.3,0-2,0.1
		c-4.7,0.3-15.1,3.5-33,20.7c-0.9,0.3-1.7,0.8-2.4,1.5c-0.2,0.2-5.1,4.8-9,10.1c-4.2,4.6-7,9.2-8.1,13.5c-2.3,8.8,2.5,19.2,6,23.7
		c4.8,6.1,9.9,9,17.6,10c0.1,0,3.5,0.5,8.3,0.5c0.3,0,0.5,0,0.8,0c-5.3,9.1-8.2,19.1-8.5,30c0,0.5,0,1,0.1,1.5
		C28.2,117.7,29.4,117.2,30.5,116.6C30.5,116.6,30.5,116.6,30.5,116.6z"/>
	<path class="st1" d="M213.6,100.4l-0.8-0.1L213.6,100.4C213.6,100.4,213.6,100.4,213.6,100.4z"/>
	<path class="st1" d="M182.7,117.6c2.6-0.9,5.2-1.9,7.6-3l2.4-5.8c0.5-1.2,1.7-2,3.1-2c0.4,0,0.9,0.1,1.3,0.2l4.2,1.7
		c1.4-0.9,2.7-1.8,3.8-2.7l0.8-5.4c0.2-1.6,1.6-2.8,3.3-2.8c0.2,0,0.3,0,0.5,0l3.6,0.5c1.1-1.2,2.1-2.5,3-3.7l-0.7-2.9
		c-0.2-0.9-0.1-1.7,0.4-2.5c0.5-0.8,1.2-1.3,2.1-1.5l2.8-0.7c1.6-3.3,3-5.8,6.6-6.4c0.2,0,0.3,0,0.5,0c4.6,0,10,9.6,11.6,12.6
		c3.5,6.6,5.9,13.7,6.8,20.2c1.1-0.3,2.5-0.4,4-0.5c-1.3-9.2-5-17.2-7.3-21.6c-5.2-9.7-10.3-14.7-15.1-14.7c-0.4,0-0.8,0-1.1,0.1
		c-4.8,0.7-7,3.9-8.7,6.9l-1,0.2c-1.9,0.5-3.5,1.6-4.5,3.3c-1,1.7-1.3,3.6-0.9,5.5l0.3,1.1c-0.1,0.1-0.2,0.2-0.3,0.4l-1.5-0.2
		c-0.3,0-0.7-0.1-1-0.1c-3.6,0-6.7,2.7-7.2,6.3l-0.5,3.8c-0.2,0.1-0.4,0.3-0.6,0.4l-2.2-0.9c-0.9-0.4-1.8-0.5-2.8-0.5
		c-3,0-5.6,1.8-6.8,4.5l-1.7,4.2c-2.2,0.9-4.5,1.8-6.9,2.6c-1.2,0.2-2.1,0.5-2.9,0.8c0.5,0.3,1,0.5,1.5,0.8
		C180.1,116.4,181.3,117.1,182.7,117.6z"/>
	<polygon class="st1" points="192.5,114.5 192.6,114.5 192.7,114.1 	"/>
	<path class="st1" d="M201.1,110.8l-0.2-0.1L201.1,110.8C201.1,110.8,201.1,110.8,201.1,110.8z"/>
	<path class="st1" d="M150.3,107.5c2.6-4.1,2.9-8.1,2.8-10c-0.1,0.5-0.1,0.9-0.1,0.9c0,0.3-0.2,0.4-0.5,0.4c0,0,0,0-0.1,0
		c-0.3,0-0.5-0.3-0.4-0.6c0-0.2,0.5-3.7,0.7-5.5c0-0.7-0.1-1.4-0.6-1.7c-0.1-0.1-0.3-0.1-0.5-0.1c-1.2,0-3.5,1.3-4.5,1.3
		c-0.1,0-0.2,0-0.3-0.1c-5.1-3.1-11.1-5.1-17.6-5.2c-0.3,0-0.5,0-0.6,0c0.4,0.3,0.6,0.5,0.6,0.5c0.2,0.2,0.3,0.5,0.1,0.7
		c-0.1,0.1-0.2,0.2-0.4,0.2c-0.1,0-0.2,0-0.3-0.1c-0.1,0-0.7-0.6-1.6-1.4c-1.2-0.8-3-3.3-4-3.3c0,0-0.1,0-0.1,0
		c-1.5,0.2-3.1,4.7-4.2,5c-3.3,0.9-4.9,1.9-7.4,3.1l1,0.5c0.2,0.1,0.3,0.4,0.2,0.7c-0.1,0.2-0.3,0.3-0.4,0.3c-0.1,0-0.2,0-0.2-0.1
		l-1.9-1c-1.1-0.3-3.4-1.8-4.7-1.8c-0.2,0-0.5,0.1-0.6,0.2c-1.5,0.7-0.8,5.8-1.8,6.7c-3.7,3-6.6,6.2-8.8,9.4
		c0.2,1.7,1.5,5.9,10.3,9.6c1.8,0.8,3.8,1.4,5.8,1.8c2.2-0.5,3.7-1.3,5.3-2.2c2.7-1.4,5.4-2.9,10.9-2.9c0,0,0,0,0,0c0,0,0,0,0,0
		c5.5,0,8.2,1.5,10.9,2.9c0.1,0.1,0.3,0.1,0.4,0.2C143.5,113.9,148.1,110.9,150.3,107.5z"/>
	<path class="st1" d="M155.1,98.4c1.3,1.3,2.9,3.1,4.6,5C158.4,101.8,156.9,100.1,155.1,98.4z"/>
	<path class="st1" d="M87.9,113c2.4-5,6.5-11.6,13.4-17.2c0.1-0.4,0.2-1.2,0.2-1.8c0.2-2,0.4-4.3,2.1-5.2c0.4-0.2,0.9-0.5,1.6-0.5
		c1.3,0,2.7,0.7,4.1,1.3c0.3,0.1,0.6,0.3,0.9,0.4c0.6-0.3,1.1-0.5,1.5-0.8c1.9-0.9,3.5-1.7,6.2-2.5c0.2-0.3,0.6-0.9,0.9-1.4
		c1-1.7,2.1-3.5,3.9-3.8c0.1,0,0.2,0,0.4,0c1.4,0,2.6,1.2,3.7,2.4c0.3,0.3,0.8,0.8,1.1,1.1c0.3,0,0.5,0,0.7,0c0.1,0,0.3,0,0.5,0
		l0.3,0c6.2,0.1,12.3,1.8,18.1,5.2c0.3-0.1,0.7-0.3,1-0.4c1.1-0.4,2.2-0.9,3.2-0.9c0.6,0,1.1,0.1,1.6,0.4c1.9,1.2,1.6,3.6,1.3,5.2
		c0,0.2-0.1,0.4-0.1,0.6c6.3,5.1,10.5,11.6,11.8,17.6c0.5,0,1.1-0.1,1.7-0.1c0.9,0,1.7,0,2.4,0.1c-1.2-6.7-5.4-13.6-11.7-19.3
		c0.1-2.2-0.2-5.5-3.3-7.5c-1.1-0.7-2.3-1-3.7-1c-1.4,0-2.8,0.4-3.9,0.8c-5.8-3-12-4.7-18.2-4.8c-1.5-1.5-3.4-3.5-6.5-3.5
		c-0.3,0-0.6,0-0.9,0.1c-3.6,0.5-5.4,3.5-6.7,5.7c0,0,0,0,0,0.1c-2.1,0.7-3.7,1.5-5.2,2.2c-1.4-0.7-3.1-1.3-4.9-1.3
		c-1.3,0-2.6,0.3-3.7,1c-3.5,1.9-3.8,5.9-4,8.3c0,0,0,0.1,0,0.1c-7.4,6.4-11.6,13.7-13.9,19.1c0.3,0,0.7,0,1,0
		C85.9,112.8,86.9,112.9,87.9,113z"/>
	<linearGradient id="SVGID_1_" gradientUnits="userSpaceOnUse" x1="-2.9949" y1="75.7704" x2="222.2551" y2="178.0204">
		<stop  offset="0" style="stop-color:#CCFBFF"/>
		<stop  offset="1" style="stop-color:#C9E4FF"/>
	</linearGradient>
	<path class="st2" d="M72.8,92.1C70,94.2,66,96.3,61.3,96c-7.7-0.5-9.8-5.5-10-10.2c-0.1-3.6,1.2-6.8,1.8-8.2
		c-1.4,0.5-3.3,1.2-5.6,1.8c-2.8,3.1-14,15.3-15,36.1c2.5-1.4,5.3-2.7,10.5-2.7c5.5,0,8.2,1.5,10.9,2.9c2.6,1.4,5,2.7,9.9,2.7
		c2.4,0,4.2-0.3,5.8-0.8C67.5,112.4,65,104.3,72.8,92.1z"/>
	<linearGradient id="SVGID_2_" gradientUnits="userSpaceOnUse" x1="8.8364" y1="49.7068" x2="234.0864" y2="151.9568">
		<stop  offset="0" style="stop-color:#CCFBFF"/>
		<stop  offset="1" style="stop-color:#C9E4FF"/>
	</linearGradient>
	<path class="st3" d="M21.9,74.3C15,70.8,10.8,61,12.4,52.5c1.4-7.2,8.8-16,11.8-19.3C24.1,33.1,24,33,23.8,33
		c-0.2,0-0.3,0.1-0.4,0.2c-0.3,0.2-4.9,4.6-8.5,9.5c-2.6,2.8-5.8,6.9-6.9,11.2c-1.6,6.4,2.1,14.9,4.9,18.4c3.9,4.9,7.6,7,13.7,7.8
		c0.3,0,1.1,0.1,2.1,0.2c0.1-0.1,0.3-0.1,0.4-0.1c10.9-0.2,20.4-3.3,24.2-4.8C47.5,76.3,29.9,78.5,21.9,74.3z"/>
	<linearGradient id="SVGID_3_" gradientUnits="userSpaceOnUse" x1="0.3544" y1="68.392" x2="225.6044" y2="170.642">
		<stop  offset="0" style="stop-color:#CCFBFF"/>
		<stop  offset="1" style="stop-color:#C9E4FF"/>
	</linearGradient>
	<path class="st4" d="M94,106.6c-1.7,2.4-3,4.8-4.1,6.9c2.3,0.6,4,1.5,5.6,2.3c2.6,1.4,5,2.7,9.9,2.7c1.8,0,3.3-0.2,4.6-0.5
		c-2-0.4-3.9-1-5.8-1.8C95.5,112.5,94.2,108.2,94,106.6z"/>
	<linearGradient id="SVGID_4_" gradientUnits="userSpaceOnUse" x1="10.8236" y1="45.3291" x2="236.0736" y2="147.5791">
		<stop  offset="0" style="stop-color:#CCFBFF"/>
		<stop  offset="1" style="stop-color:#C9E4FF"/>
	</linearGradient>
	<path class="st5" d="M155.1,98.4c-0.6-0.6-1.2-1.1-1.9-1.7c0,0.3-0.1,0.5-0.1,0.7c0.1,1.9-0.1,5.9-2.8,10
		c-2.2,3.4-6.9,6.4-12.7,8.5c2.4,1.3,4.8,2.5,9.5,2.5c5,0,7.4-1.3,9.9-2.7c2-1.1,4-2.2,7.2-2.7c-0.7-3.1-2.2-6.4-4.6-9.6
		C158.1,101.5,156.4,99.7,155.1,98.4z"/>
	<linearGradient id="SVGID_5_" gradientUnits="userSpaceOnUse" x1="-5.1815" y1="32.7574" x2="229.8185" y2="156.7574">
		<stop  offset="0" style="stop-color:#00C8D7"/>
		<stop  offset="1" style="stop-color:#0A84FF"/>
	</linearGradient>
	<path class="st6" d="M70,103.1c1.9-8.2,8.9-17.5,20.6-27.6c6.9-5.9,10.4-14.3,11.8-18.8c2-6.1,2.6-12,1.5-15.4l0.2-0.5
		c0.2-0.5,0.1-1.1-0.1-1.5c-0.2-0.5-0.7-0.8-1.2-1l-0.3-0.1c-1.7-3.1-3.9-6-6.5-8.8l-0.1-3c0-0.5-0.2-1-0.6-1.4
		c-0.4-0.4-0.9-0.6-1.4-0.6c0,0,0,0,0,0l-3.1,0.1c-2.9-2.3-6-4.4-9.4-6.3l-1.3-4.7c-0.1-0.5-0.5-0.9-0.9-1.2c-0.3-0.2-0.6-0.3-1-0.3
		c-0.2,0-0.4,0-0.5,0.1l-6,1.6c-5.5-2-10.7-3.1-15-3.1c-0.6,0-1.1,0-1.7,0.1C44.8,11.4,29.3,25.5,23.6,31c-0.6,0-1.2,0.3-1.7,0.7
		c-0.2,0.2-4.9,4.6-8.6,9.7c-2.7,2.9-6.1,7.3-7.3,11.9c-1.8,7,2,16,5.3,20.2c4.2,5.3,8.3,7.6,15,8.5c1.1,0.1,4.2,0.4,7.8,0.4
		c3.2,0,6.1-0.2,8.7-0.6c-7.9,10.2-12,21.8-12.4,34.7c0,0,0,0,0,0c0.5-0.3,1.1-0.6,1.6-0.9c0.1-0.1,0.3-0.2,0.4-0.2
		c1-20.7,12.2-32.9,15-36.1c2.3-0.6,4.2-1.3,5.6-1.8c1.7-0.6,2.7-1.1,2.9-1.2c0.5-0.2,0.7-0.8,0.5-1.3c-0.2-0.5-0.8-0.7-1.3-0.5
		c0,0-0.7,0.3-1.9,0.8c-3.9,1.5-13.3,4.6-24.2,4.8c-0.2,0-0.3,0-0.4,0.1c-1.1-0.1-1.8-0.2-2.1-0.2c-6.1-0.8-9.8-2.9-13.7-7.8
		C10.1,68.8,6.3,60.3,8,53.9c1.1-4.3,4.3-8.3,6.9-11.2c3.6-4.9,8.2-9.3,8.5-9.5c0.1-0.1,0.3-0.2,0.4-0.2c0.2,0,0.3,0.1,0.4,0.2
		c0,0,0,0,0,0c10.2-10,23-20,30.8-20.5c0.5,0,1-0.1,1.5-0.1c4.3,0,9.5,1.1,14.9,3.2l0.5-0.1l3.4,1.5c0.1,0,0.1,0,0.2,0
		c0.2,0,0.4-0.1,0.5-0.3c0.1-0.3,0-0.5-0.3-0.7l-2.3-1l4.7-1.3l1.5,5.6c3.6,2,7.2,4.3,10.4,7l3.9-0.1l0.1,3.7c0,0,0.1,0.1,0.1,0.1
		c-0.1,1.2-0.2,2.1-0.3,2.2c-0.1,0.3,0.1,0.5,0.3,0.6c0.1,0,0.1,0,0.2,0c0.2,0,0.4-0.1,0.5-0.3c0.1-0.2,0.1-0.8,0.2-1.6
		c2.4,2.6,4.5,5.5,6.1,8.6l1.1,0.3l-0.4,1.2c0,0,0,0,0,0.1l-1.1,2.6c-0.1,0.3,0,0.5,0.3,0.6c0.1,0,0.1,0,0.2,0
		c0.2,0,0.4-0.1,0.5-0.3l0.6-1.4c1,6.6-3,22.4-13,31c-8,6.8-13.2,12.8-16.5,18.1c-7.8,12.2-5.3,20.3-3.2,25.6
		c0.7-0.2,1.3-0.5,1.9-0.7C70.1,113.6,68.6,109.1,70,103.1z"/>
	<g>
		<linearGradient id="SVGID_6_" gradientUnits="userSpaceOnUse" x1="23.6526" y1="17.0677" x2="248.9026" y2="119.3177">
			<stop  offset="0" style="stop-color:#CCFBFF"/>
			<stop  offset="1" style="stop-color:#C9E4FF"/>
		</linearGradient>
		<path class="st7" d="M227.9,82.6c-0.1,0-0.1,0-0.2,0c-2.8,0.4-3.7,2.5-5.5,6.1l2.9-0.3c0.4,0,0.7,0.1,0.9,0.4c0.2,0.3,0.2,0.7,0,1
			l-4.9,8.7c-0.2,0.3-0.5,0.5-0.9,0.5c0,0-0.1,0-0.1,0c-0.4,0-0.7-0.3-0.8-0.7l-0.9-3.2c-1.2,1.6-2.6,3.4-4.3,5.4l-0.4-0.1
			c0,0,0,0.1-0.1,0.1l2.4,0.6c0.4,0.1,0.6,0.4,0.7,0.8c0.1,0.4-0.1,0.8-0.4,1l-7.8,6.3c-0.2,0.1-0.4,0.2-0.6,0.2
			c-0.2,0-0.3,0-0.5-0.1c-0.4-0.2-0.6-0.6-0.5-1l0.1-1.3l-0.1,0.1l0,0.1c-1.8,1.4-3.6,2.7-5.5,3.9l-0.3-0.1c0,0,0,0,0,0l1.5,0.8
			c0.3,0.2,0.5,0.5,0.5,0.9c0,0.4-0.2,0.7-0.6,0.9l-9.3,4.3c-0.1,0.1-0.3,0.1-0.4,0.1c-0.2,0-0.5-0.1-0.7-0.3
			c-0.3-0.3-0.4-0.7-0.3-1.1l0.2-0.6l-0.1,0.1l0,0.1c-0.1,0.1-0.3,0.1-0.4,0.2l-0.2,0.1c0,0-0.1,0-0.1,0c-1.6,0.7-3.2,1.4-4.8,2
			c0.7,0.1,1.6,0.1,2.4,0.1c5,0,7.4-1.3,9.9-2.7c2.7-1.4,5.4-2.9,10.9-2.9c5.5,0,8.2,1.5,10.9,2.9c2.6,1.4,5,2.7,9.9,2.7
			c5,0,7.4-1.3,9.9-2.7c1.2-0.7,2.4-1.3,3.9-1.8C242.2,98.3,231.8,82.6,227.9,82.6z"/>
		<linearGradient id="SVGID_7_" gradientUnits="userSpaceOnUse" x1="28.9561" y1="5.3844" x2="254.2061" y2="107.6344">
			<stop  offset="0" style="stop-color:#CCFBFF"/>
			<stop  offset="1" style="stop-color:#C9E4FF"/>
		</linearGradient>
		<path class="st8" d="M223.3,90.5l-4.1,0.4l0.1,0.4c0.1-0.1,0.4-0.2,0.5-0.1c0.3,0.1,0.4,0.4,0.3,0.7c-0.1,0.3-0.3,0.6-0.4,0.8
			l0.8,2.7L223.3,90.5z"/>
		<linearGradient id="SVGID_8_" gradientUnits="userSpaceOnUse" x1="28.8335" y1="5.6544" x2="254.0835" y2="107.9044">
			<stop  offset="0" style="stop-color:#CCFBFF"/>
			<stop  offset="1" style="stop-color:#C9E4FF"/>
		</linearGradient>
		<path class="st9" d="M220.1,99c0,0,0.1,0,0.1,0c0.4,0,0.7-0.2,0.9-0.5l4.9-8.7c0.2-0.3,0.2-0.7,0-1c-0.2-0.3-0.6-0.5-0.9-0.4
			l-2.9,0.3c0,0,0,0.1,0,0.1l-3.7,0.9c-0.7,0.2-1.1,0.9-1,1.6l0.6,2.5c0.4-0.6,0.8-1.3,1.1-2.1c0-0.1,0.1-0.1,0.1-0.2l-0.1-0.4
			l4.1-0.4l-2.8,4.9l-0.8-2.7c-0.4,0.9-0.9,1.6-1.4,2.2l0,0.1c0,0,0,0.1-0.1,0.1l0.9,3.2C219.4,98.7,219.7,99,220.1,99z"/>
		<linearGradient id="SVGID_9_" gradientUnits="userSpaceOnUse" x1="22.8892" y1="18.7494" x2="248.1392" y2="120.9994">
			<stop  offset="0" style="stop-color:#CCFBFF"/>
			<stop  offset="1" style="stop-color:#C9E4FF"/>
		</linearGradient>
		<path class="st10" d="M213.5,102.5l-3.9-1l-0.2,1.9c0.2-0.1,0.4,0,0.6,0.1c0.2,0.2,0.2,0.5,0,0.7l-0.7,0.6l-0.1,1.2L213.5,102.5z"
			/>
		<linearGradient id="SVGID_10_" gradientUnits="userSpaceOnUse" x1="22.6235" y1="19.3348" x2="247.8735" y2="121.5848">
			<stop  offset="0" style="stop-color:#CCFBFF"/>
			<stop  offset="1" style="stop-color:#C9E4FF"/>
		</linearGradient>
		<path class="st11" d="M207.4,109.2c0.1,0.1,0.3,0.1,0.5,0.1c0.2,0,0.4-0.1,0.6-0.2l7.8-6.3c0.3-0.2,0.4-0.6,0.4-1
			c-0.1-0.4-0.4-0.7-0.7-0.8l-2.4-0.6l-0.8-0.2l-3.5-0.5c-0.1,0-0.1,0-0.2,0c-0.6,0-1.2,0.5-1.3,1.1l-0.6,4.5l2.1-1.9
			c0,0,0.1-0.1,0.1-0.1l0.2-1.9l3.9,1l-4.4,3.5l0.1-1.2l-2.2,2.1l-0.1,1.3C206.8,108.6,207,109,207.4,109.2z"/>
		<linearGradient id="SVGID_11_" gradientUnits="userSpaceOnUse" x1="16.9965" y1="31.7307" x2="242.2465" y2="133.9807">
			<stop  offset="0" style="stop-color:#CCFBFF"/>
			<stop  offset="1" style="stop-color:#C9E4FF"/>
		</linearGradient>
		<path class="st12" d="M199.9,112.4l-3.7-2l-1,2.7c0.2,0,0.3,0.1,0.4,0.2c0.1,0.2,0,0.5-0.2,0.7l-0.7,0.4l-0.2,0.4L199.9,112.4z"/>
		<linearGradient id="SVGID_12_" gradientUnits="userSpaceOnUse" x1="16.6343" y1="32.5285" x2="241.8843" y2="134.7785">
			<stop  offset="0" style="stop-color:#CCFBFF"/>
			<stop  offset="1" style="stop-color:#C9E4FF"/>
		</linearGradient>
		<path class="st13" d="M192.1,117.6c0.2,0.2,0.4,0.3,0.7,0.3c0.1,0,0.3,0,0.4-0.1l9.3-4.3c0.3-0.2,0.6-0.5,0.6-0.9
			c0-0.4-0.2-0.7-0.5-0.9l-1.5-0.8l-0.2-0.1l-4.6-1.9c-0.2-0.1-0.3-0.1-0.5-0.1c-0.5,0-1,0.3-1.2,0.8l-1.9,4.6l-0.1,0.4l2.3-1.3
			c0.1,0,0.2-0.1,0.3-0.1l1-2.7l3.7,2l-5.3,2.5l0.2-0.4l-2.6,1.4l-0.2,0.6C191.7,116.9,191.8,117.3,192.1,117.6z"/>
	</g>
	<linearGradient id="SVGID_13_" gradientUnits="userSpaceOnUse" x1="13.4007" y1="-2.459" x2="248.4007" y2="121.541">
		<stop  offset="0" style="stop-color:#00C8D7"/>
		<stop  offset="1" style="stop-color:#0A84FF"/>
	</linearGradient>
	<path class="st14" d="M227.9,80.6c-0.2,0-0.3,0-0.5,0c-3.6,0.6-4.9,3.1-6.6,6.4l-2.8,0.7c-0.9,0.2-1.6,0.7-2.1,1.5
		c-0.5,0.8-0.6,1.6-0.4,2.5l0.7,2.9c-0.9,1.2-1.9,2.5-3,3.7l-3.6-0.5c-0.2,0-0.3,0-0.5,0c-1.6,0-3,1.2-3.3,2.8l-0.8,5.4
		c-1.2,0.9-2.5,1.8-3.8,2.7L197,107c-0.4-0.2-0.8-0.2-1.3-0.2c-1.3,0-2.5,0.8-3.1,2l-2.4,5.8c-2.4,1.1-5,2.1-7.6,3
		c1,0.4,2.2,0.6,3.7,0.8c1.6-0.6,3.2-1.3,4.8-2c0,0,0.1,0,0.1,0l0.2-0.1c0.1-0.1,0.3-0.1,0.4-0.2l0-0.1l0.1-0.1l2.6-1.4l0.7-0.4
		c0.2-0.1,0.3-0.4,0.2-0.7c-0.1-0.2-0.2-0.2-0.4-0.2c-0.1,0-0.2,0-0.3,0.1l-2.3,1.3l0,0l0.2-0.4l1.9-4.6c0.2-0.5,0.7-0.8,1.2-0.8
		c0.2,0,0.3,0,0.5,0.1l4.6,1.9l0.2,0.1l0.3,0.1c1.9-1.2,3.7-2.5,5.5-3.9l0-0.1l0.1-0.1l2.2-2.1l0.7-0.6c0.2-0.2,0.2-0.5,0-0.7
		c-0.1-0.2-0.4-0.2-0.6-0.1c-0.1,0-0.1,0-0.1,0.1l-2.1,1.9l0.6-4.5c0.1-0.7,0.7-1.1,1.3-1.1c0.1,0,0.1,0,0.2,0l3.5,0.5l0.8,0.1
		l0.4,0.1c1.8-1.9,3.2-3.7,4.3-5.4c0,0,0-0.1,0.1-0.1l0-0.1c0.4-0.6,0.9-1.3,1.4-2.2c0.1-0.3,0.3-0.5,0.4-0.8c0.1-0.3,0-0.5-0.3-0.7
		c-0.2-0.1-0.4,0-0.5,0.1c0,0-0.1,0.1-0.1,0.2c-0.4,0.8-0.8,1.5-1.1,2.1l-0.6-2.5c-0.2-0.7,0.3-1.4,1-1.6l3.7-0.9c0,0,0-0.1,0-0.1
		c1.8-3.5,2.7-5.6,5.5-6.1c0.1,0,0.1,0,0.2,0c3.9,0,14.3,15.7,16.5,31.4c0.6-0.2,1.2-0.4,1.9-0.6c-1-6.5-3.4-13.7-6.8-20.2
		C237.9,90.2,232.4,80.6,227.9,80.6z"/>
	<linearGradient id="SVGID_14_" gradientUnits="userSpaceOnUse" x1="-6.0651" y1="34.4319" x2="228.9349" y2="158.4319">
		<stop  offset="0" style="stop-color:#00C8D7"/>
		<stop  offset="1" style="stop-color:#0A84FF"/>
	</linearGradient>
	<path class="st15" d="M154.5,95.2c0-0.2,0-0.4,0.1-0.6c0.2-1.6,0.5-4-1.3-5.2c-0.4-0.3-1-0.4-1.6-0.4c-1,0-2.2,0.4-3.2,0.9
		c-0.3,0.1-0.7,0.3-1,0.4c-5.8-3.3-11.8-5.1-18.1-5.2l-0.3,0c-0.2,0-0.3,0-0.5,0c-0.2,0-0.4,0-0.7,0c-0.3-0.3-0.8-0.8-1.1-1.1
		c-1.2-1.2-2.3-2.4-3.7-2.4c-0.1,0-0.2,0-0.4,0c-1.8,0.3-2.8,2-3.9,3.8c-0.3,0.4-0.6,1.1-0.9,1.4c-2.7,0.8-4.3,1.6-6.2,2.5
		c-0.5,0.2-1,0.5-1.5,0.8c-0.3-0.1-0.6-0.3-0.9-0.4c-1.4-0.7-2.8-1.3-4.1-1.3c-0.7,0-1.3,0.2-1.6,0.5c-1.7,0.9-1.9,3.2-2.1,5.2
		c-0.1,0.6-0.1,1.4-0.2,1.8c-6.9,5.6-11.1,12.2-13.4,17.2c0.7,0.1,1.4,0.2,2.1,0.4c1-2.1,2.3-4.4,4.1-6.9c2.2-3.1,5.1-6.4,8.8-9.4
		c1.1-0.9,0.3-6,1.8-6.7c0.2-0.1,0.4-0.2,0.6-0.2c1.3,0,3.6,1.4,4.7,1.8l1.9,1c0.1,0,0.2,0.1,0.2,0.1c0.2,0,0.4-0.1,0.4-0.3
		c0.1-0.2,0-0.5-0.2-0.7l-1-0.5c2.5-1.2,4.1-2.2,7.4-3.1c1.1-0.3,2.7-4.8,4.2-5c0,0,0.1,0,0.1,0c1,0,2.8,2.5,4,3.3
		c0.9,0.9,1.6,1.4,1.6,1.4c0.1,0.1,0.2,0.1,0.3,0.1c0.1,0,0.3-0.1,0.4-0.2c0.2-0.2,0.1-0.5-0.1-0.7c0,0-0.2-0.2-0.6-0.5
		c0.1,0,0.3,0,0.6,0c6.5,0.1,12.5,2.1,17.6,5.2c0.1,0,0.2,0.1,0.3,0.1c0.9,0,3.3-1.3,4.5-1.3c0.2,0,0.4,0,0.5,0.1
		c0.5,0.3,0.6,0.9,0.6,1.7c-0.2,1.7-0.7,5.3-0.7,5.5c0,0.3,0.2,0.5,0.4,0.6c0,0,0,0,0.1,0c0.2,0,0.5-0.2,0.5-0.4c0,0,0-0.4,0.1-0.9
		c0-0.2,0.1-0.5,0.1-0.7c0.7,0.5,1.3,1.1,1.9,1.7c1.8,1.6,3.3,3.3,4.6,5c2.4,3.2,3.9,6.5,4.6,9.6c0.6-0.1,1.3-0.2,2-0.2
		C165.1,106.8,160.8,100.4,154.5,95.2z"/>
	<path class="st0" d="M171.4,40l12,0c0.3,0,0.5-0.2,0.5-0.5c0-0.3-0.2-0.5-0.5-0.5l-12,0c-0.3,0-0.5,0.2-0.5,0.5
		C170.9,39.8,171.1,40,171.4,40z"/>
	<path class="st0" d="M239.2,40.4c0.1,0.2,0.3,0.3,0.4,0.3h0.6c0.3,0,0.5-0.2,0.5-0.5s-0.2-0.5-0.5-0.5H240c-0.2-0.4-0.6-1-1.1-1.9
		c-0.1-0.2-0.5-0.3-0.7-0.2c-0.2,0.1-0.3,0.5-0.2,0.7C238.7,39.4,239.1,40.1,239.2,40.4z"/>
	<path class="st0" d="M214.3,29.1c0.1,0.1,0.2,0.2,0.4,0.2c0.1,0,0.2,0,0.3-0.1c0.2-0.2,0.2-0.5,0.1-0.7c-0.7-0.8-1.4-1.6-2.1-2.2
		c-0.2-0.2-0.5-0.2-0.7,0c-0.2,0.2-0.2,0.5,0,0.7C213,27.6,213.7,28.3,214.3,29.1z"/>
	<path class="st0" d="M194.2,25.5c0.1,0,0.2,0,0.3-0.1c1.4-1.1,3.3-1.9,5.7-2.2c1.9-0.3,3.6-0.2,5.3,0.2c0.3,0.1,0.5-0.1,0.6-0.4
		c0.1-0.3-0.1-0.5-0.4-0.6c-1.8-0.4-3.7-0.5-5.7-0.2c-2.6,0.4-4.7,1.2-6.2,2.4c-0.2,0.2-0.3,0.5-0.1,0.7
		C193.9,25.4,194.1,25.5,194.2,25.5z"/>
	<path class="st0" d="M254.2,40.6l4,0c0.3,0,0.5-0.2,0.5-0.5c0-0.3-0.2-0.5-0.5-0.5l-4,0c-0.3,0-0.5,0.2-0.5,0.5
		C253.7,40.4,254,40.6,254.2,40.6z"/>
	<path class="st0" d="M216.9,33.2c0.1,0.2,0.3,0.3,0.4,0.3c0.1,0,0.1,0,0.2-0.1c0.2-0.1,0.4-0.4,0.2-0.7c-0.1-0.3-0.3-0.6-0.5-0.9
		c-0.1-0.2-0.4-0.3-0.7-0.2c-0.2,0.1-0.3,0.4-0.2,0.7C216.7,32.7,216.8,33,216.9,33.2z"/>
	<path class="st0" d="M222.8,28.6c1.1-0.4,2.4-0.4,3.9-0.2c2.1,0.4,4.3,1.7,6.4,3.7c0.1,0.1,0.2,0.1,0.3,0.1c0.1,0,0.3-0.1,0.4-0.2
		c0.2-0.2,0.2-0.5,0-0.7c-2.3-2.2-4.6-3.5-6.9-4c-1.6-0.3-3.1-0.2-4.4,0.2c-0.3,0.1-0.4,0.4-0.3,0.6
		C222.3,28.5,222.6,28.6,222.8,28.6z"/>
	<path class="st0" d="M244.2,40.6h1c0.3,0,0.5-0.2,0.5-0.5s-0.2-0.5-0.5-0.5h-1c-0.3,0-0.5,0.2-0.5,0.5S244,40.6,244.2,40.6z"/>
	<path class="st0" d="M191.2,34.5C191.3,34.5,191.3,34.5,191.2,34.5c0.3,0,0.5-0.3,0.5-0.6c0-0.3-0.1-0.6-0.1-1
		c0-0.3-0.3-0.5-0.5-0.5c0,0-0.1,0-0.1,0c-0.2,0.1-0.4,0.3-0.4,0.5c0,0.3,0.1,0.7,0.1,1c0,0.1,0,0.1,0,0.2
		C190.9,34.4,191,34.5,191.2,34.5z"/>
	<path class="st0" d="M193.1,39.8c0.1-0.1,0.1-0.3,0-0.5c0,0-0.3-0.6-0.6-1.5c-0.1-0.3-0.4-0.4-0.6-0.3c-0.3,0.1-0.4,0.4-0.3,0.6
		c0.1,0.4,0.2,0.7,0.3,0.9h-0.6c0,0-0.1,0-0.1,0c-0.2,0.1-0.4,0.2-0.4,0.5c0,0.3,0.2,0.5,0.5,0.5h0.1l1.2,0
		C192.9,40,193,39.9,193.1,39.8z"/>
	<path class="st1" d="M171,44.4l87.9,0h0c0.6,0,1-0.4,1-1c0-0.6-0.4-1-1-1l-20.4,0c-1.8-3.4-6.3-10.5-12-11.6c-7.5-1.4-9,6.1-9,6.1
		s-5-13-17.6-11.3c-5.8,0.8-8.1,3.7-8.8,7c0,0,0.1,0,0.1,0c0.3,0,0.5,0.2,0.5,0.5c0,0.3,0,0.6,0.1,1c0,0.3-0.2,0.5-0.4,0.6
		c0,0,0,0-0.1,0c-0.2,0-0.4-0.1-0.4-0.3c-0.1,1.7,0.1,3.4,0.5,4.8c0,0,0.1,0,0.1,0h0.6c-0.1-0.2-0.2-0.6-0.3-0.9
		c-0.1-0.3,0.1-0.5,0.3-0.6c0.3-0.1,0.5,0.1,0.6,0.3c0.3,0.9,0.6,1.5,0.6,1.5c0.1,0.2,0.1,0.3,0,0.5s-0.2,0.2-0.4,0.2l-1.2,0
		c0.4,1.3,0.8,2.3,0.8,2.4l-21.3,0h0c-0.6,0-1,0.4-1,1C170,44,170.4,44.4,171,44.4z"/>
	<path class="st0" d="M127,7.2c0,0,0.1,0,0.1,0c0.2,0,0.4-0.1,0.5-0.4c0.3-0.9,1.1-2.8,3.4-2.8c0.3,0,0.6,0,0.9,0.1
		c1.4,0.3,2.9,1.2,4.3,2.7c0.2,0.2,0.5,0.2,0.7,0c0.2-0.2,0.2-0.5,0-0.7c-1.6-1.7-3.2-2.7-4.9-3c-0.4-0.1-0.8-0.1-1.1-0.1
		c-3.1,0-4.2,2.7-4.4,3.6C126.6,6.9,126.7,7.2,127,7.2z"/>
	<path class="st0" d="M120,1.3c0.3,0.1,0.6,0.1,0.9,0.2c0.1,0,0.1,0,0.2,0c0.2,0,0.4-0.1,0.5-0.3c0.1-0.3-0.1-0.5-0.3-0.6
		c-0.3-0.1-0.7-0.2-1-0.3c-0.3,0-0.5,0.1-0.6,0.4C119.5,1,119.7,1.3,120,1.3z"/>
	<path class="st0" d="M113.5,2.9c0.1,0,0.3-0.1,0.4-0.2c0.6-0.6,1.4-1,2.4-1.3c0.3-0.1,0.4-0.3,0.4-0.6c-0.1-0.3-0.3-0.4-0.6-0.4
		c-1.2,0.3-2.1,0.8-2.8,1.6c-0.2,0.2-0.2,0.5,0,0.7C113.3,2.9,113.4,2.9,113.5,2.9z"/>
	<path class="st0" d="M143,10.5l3,0c0.3,0,0.5-0.2,0.5-0.5c0-0.3-0.2-0.5-0.5-0.5l-3,0c-0.3,0-0.5,0.2-0.5,0.5
		C142.5,10.2,142.7,10.5,143,10.5z"/>
	<path class="st0" d="M113.5,10.4c0.1-0.1,0.1-0.3,0-0.5l0-0.1c-0.1-0.3-0.4-0.4-0.7-0.3c-0.1,0-0.1,0.1-0.2,0.1l-0.7,0l-10.8,0
		c-0.3,0-0.5,0.2-0.5,0.5c0,0.3,0.2,0.5,0.5,0.5l11,0l0.8,0C113.3,10.6,113.4,10.5,113.5,10.4z"/>
	<path class="st1" d="M101.1,13.9l48.9,0h0c0.6,0,1-0.4,1-1c0-0.6-0.4-1-1-1l-11.6,0c-1-1.9-3.5-5.9-6.7-6.5c-4.2-0.8-5,3.4-5,3.4
		s-2.8-7.2-9.8-6.3c-5.2,0.7-5.3,4.5-4.9,7l0.7,0c0,0,0.1-0.1,0.2-0.1c0.3-0.1,0.5,0,0.7,0.3l0,0.1c0.1,0.2,0.1,0.3,0,0.5
		c-0.1,0.1-0.2,0.2-0.4,0.2l-0.8,0c0.2,0.8,0.4,1.3,0.5,1.3l-11.6,0h0c0,0,0,0,0,0h-0.2l0.2,0c-0.5,0-1,0.5-1,1
		C100.1,13.5,100.6,13.9,101.1,13.9z"/>
	<path class="st1" d="M142.9,0.6C142.8,0.6,142.8,0.7,142.9,0.6L142.9,0.6z"/>
	<linearGradient id="SVGID_15_" gradientUnits="userSpaceOnUse" x1="3.9583" y1="15.436" x2="238.9583" y2="139.436">
		<stop  offset="0" style="stop-color:#00C8D7"/>
		<stop  offset="1" style="stop-color:#0A84FF"/>
	</linearGradient>
	<path class="st16" d="M59.9,46.5c0.1-0.2,0.1-0.4,0.1-0.6v-3.2c0-0.8-0.6-1.4-1.4-1.4c-0.8,0-1.4,0.6-1.4,1.4V46
		c0,0.2,0.1,0.4,0.2,0.6c0.4-0.1,0.9-0.2,1.5-0.2C59.2,46.4,59.5,46.5,59.9,46.5z"/>
	<path class="st17" d="M61.3,50.7c0.3,0.4,0.8,0.7,1.3,0.7c0.3,0,0.6-0.1,0.8-0.2c0.7-0.5,0.9-1.4,0.4-2.1c-0.1-0.1-1.4-2.1-4-2.5
		c-0.3-0.1-0.7-0.1-1.1-0.1c-0.5,0-1,0.1-1.5,0.2c-2.3,0.6-3.5,2.4-3.6,2.5c-0.5,0.7-0.3,1.6,0.4,2.1s1.6,0.3,2.1-0.4
		c0,0,0.9-1.3,2.5-1.3C60.4,49.4,61.3,50.7,61.3,50.7z M55.6,50.4c-0.3,0.5-0.9,0.6-1.4,0.3c-0.5-0.3-0.6-0.9-0.3-1.4
		c0.1-0.1,1.6-2.4,4.6-2.4s4.6,2.3,4.6,2.4c0.3,0.5,0.2,1.1-0.3,1.4c-0.2,0.1-0.4,0.2-0.5,0.2c-0.3,0-0.6-0.2-0.8-0.5
		c0-0.1-1-1.5-3-1.5C56.6,48.9,55.6,50.4,55.6,50.4z"/>
	<linearGradient id="SVGID_16_" gradientUnits="userSpaceOnUse" x1="1.7443" y1="19.6318" x2="236.7443" y2="143.6318">
		<stop  offset="0" style="stop-color:#00C8D7"/>
		<stop  offset="1" style="stop-color:#0A84FF"/>
	</linearGradient>
	<path class="st18" d="M61.5,50.4c0.2,0.3,0.5,0.5,0.8,0.5c0.2,0,0.4-0.1,0.5-0.2c0.5-0.3,0.6-0.9,0.3-1.4c-0.1-0.1-1.6-2.4-4.6-2.4
		s-4.6,2.3-4.6,2.4c-0.3,0.5-0.2,1.1,0.3,1.4c0.5,0.3,1.1,0.2,1.4-0.3c0,0,1-1.5,3-1.5C60.5,48.9,61.5,50.4,61.5,50.4z"/>
	<linearGradient id="SVGID_17_" gradientUnits="userSpaceOnUse" x1="-3.0472" y1="28.7125" x2="231.9528" y2="152.7125">
		<stop  offset="0" style="stop-color:#00C8D7"/>
		<stop  offset="1" style="stop-color:#0A84FF"/>
	</linearGradient>
	<path class="st19" d="M27.7,46.5c0.1-0.2,0.1-0.4,0.1-0.6v-3.2c0-0.8-0.6-1.4-1.4-1.4c-0.8,0-1.4,0.6-1.4,1.4V46
		c0,0.2,0.1,0.4,0.2,0.6c0.4-0.1,0.9-0.2,1.5-0.2C27,46.4,27.4,46.5,27.7,46.5z"/>
	<path class="st17" d="M27.7,46.5c-0.3-0.1-0.7-0.1-1.1-0.1c-0.5,0-1,0.1-1.5,0.2c-2.3,0.6-3.5,2.4-3.6,2.5
		c-0.5,0.7-0.3,1.6,0.4,2.1c0.7,0.5,1.6,0.3,2.1-0.4c0,0,0.9-1.3,2.5-1.3c1.7,0,2.5,1.2,2.5,1.3c0.3,0.4,0.8,0.7,1.3,0.7
		c0.3,0,0.6-0.1,0.8-0.2c0.7-0.5,0.9-1.4,0.4-2.1C31.6,49,30.3,47,27.7,46.5z M30.7,50.7c-0.2,0.1-0.4,0.2-0.5,0.2
		c-0.3,0-0.6-0.2-0.8-0.5c0-0.1-1-1.5-3-1.5c-1.9,0-3,1.5-3,1.5c-0.3,0.5-0.9,0.6-1.4,0.3c-0.5-0.3-0.6-0.9-0.3-1.4
		c0.1-0.1,1.6-2.4,4.6-2.4s4.6,2.3,4.6,2.4C31.3,49.8,31.2,50.4,30.7,50.7z"/>
	<linearGradient id="SVGID_18_" gradientUnits="userSpaceOnUse" x1="-5.2611" y1="32.9083" x2="229.7389" y2="156.9083">
		<stop  offset="0" style="stop-color:#00C8D7"/>
		<stop  offset="1" style="stop-color:#0A84FF"/>
	</linearGradient>
	<path class="st20" d="M26.4,46.9c-3,0-4.6,2.3-4.6,2.4c-0.3,0.5-0.2,1.1,0.3,1.4c0.5,0.3,1.1,0.2,1.4-0.3c0,0,1-1.5,3-1.5
		c1.9,0,2.9,1.4,3,1.5c0.2,0.3,0.5,0.5,0.8,0.5c0.2,0,0.4-0.1,0.5-0.2c0.5-0.3,0.6-0.9,0.3-1.4C31,49.2,29.4,46.9,26.4,46.9z"/>
	<path class="st0" d="M70.2,127.5c-0.1-0.3-0.4-0.4-0.6-0.3c-0.3,0.1-0.6,0.2-0.9,0.3c-0.3,0.1-0.4,0.3-0.4,0.6
		c0.1,0.2,0.3,0.4,0.5,0.4c0,0,0.1,0,0.1,0c0.3-0.1,0.7-0.2,1-0.3C70.1,128,70.2,127.7,70.2,127.5z"/>
	<path class="st0" d="M99.9,127.3c-0.9-0.3-1.8-0.6-2.7-1c-0.2-0.1-0.5,0-0.7,0.2c-0.1,0.2,0,0.5,0.2,0.7c1,0.5,1.9,0.8,2.9,1.1
		c0,0,0.1,0,0.1,0c0.2,0,0.4-0.1,0.5-0.4C100.3,127.7,100.1,127.4,99.9,127.3z"/>
	<path class="st0" d="M159.5,124c-0.9,0.4-1.7,0.8-2.4,1.2c-2.3,1.3-4.5,2.5-8.6,2.7c-0.3,0-0.5,0.3-0.5,0.5c0,0.3,0.2,0.5,0.5,0.5
		c0,0,0,0,0,0c4.3-0.3,6.7-1.6,9-2.8c0.8-0.4,1.5-0.8,2.4-1.2c0.3-0.1,0.4-0.4,0.2-0.7C160.1,124,159.8,123.9,159.5,124z"/>
	<path class="st0" d="M104.7,128c-0.3,0-0.7,0-1,0c-0.3,0-0.5,0.2-0.5,0.5s0.2,0.5,0.5,0.5c0.3,0,0.7,0,1,0c0,0,0,0,0,0
		c0.3,0,0.5-0.2,0.5-0.5C105.2,128.2,105,128,104.7,128z"/>
	<path class="st0" d="M89.8,122.9c-1.6-0.4-3.3-0.6-5.3-0.6c0,0,0,0,0,0c-2.6,0-4.8,0.3-6.8,1.1c-0.3,0.1-0.4,0.4-0.3,0.6
		c0.1,0.2,0.3,0.3,0.5,0.3c0.1,0,0.1,0,0.2,0c1.9-0.7,4-1,6.4-1c0,0,0,0,0,0c1.9,0,3.6,0.2,5.1,0.6c0.3,0.1,0.5-0.1,0.6-0.4
		C90.2,123.3,90.1,123,89.8,122.9z"/>
	<path class="st0" d="M53.9,126.6c0.1,0,0.2,0.1,0.2,0.1c0.2,0,0.4-0.1,0.4-0.3c0.1-0.2,0-0.5-0.2-0.7l-0.9-0.5
		c-2.6-1.4-5.3-2.9-10.6-2.9c-0.3,0-0.5,0.2-0.5,0.5s0.2,0.5,0.5,0.5c5.1,0,7.6,1.3,10.2,2.8L53.9,126.6z"/>
	<path class="st0" d="M64.8,128.9c0.3,0,0.5-0.2,0.5-0.5s-0.3-0.5-0.5-0.5c-0.9,0-2,0-2.9,0c-0.3,0-0.5,0.2-0.5,0.5
		c0,0.3,0.2,0.5,0.5,0.5c0.6,0,1.2,0.1,1.9,0.1C64,129,64.4,129,64.8,128.9z"/>
	<path class="st0" d="M139.9,126.8c-0.3-0.1-0.6-0.2-0.9-0.4c-0.3-0.1-0.5,0-0.7,0.2c-0.1,0.3,0,0.5,0.2,0.7
		c0.3,0.1,0.6,0.3,0.9,0.4c0.1,0,0.1,0,0.2,0c0.2,0,0.4-0.1,0.5-0.3C140.3,127.1,140.2,126.9,139.9,126.8z"/>
	<path class="st0" d="M188.6,128c-1.8,0-3.5-0.2-4.9-0.5c-0.3-0.1-0.5,0.1-0.6,0.4s0.1,0.5,0.4,0.6c1.6,0.4,3.3,0.6,5.2,0.6
		c0.3,0,0.5-0.2,0.5-0.5S188.8,128,188.6,128z"/>
	<path class="st0" d="M175.5,123.8c-0.3-0.1-0.6-0.3-1-0.4c-0.3-0.1-0.5,0-0.6,0.3c-0.1,0.3,0,0.5,0.3,0.6c0.3,0.1,0.6,0.2,0.9,0.4
		c0.1,0,0.1,0,0.2,0c0.2,0,0.4-0.1,0.5-0.3C175.9,124.2,175.8,123.9,175.5,123.8z"/>
	<path class="st0" d="M124.6,122.4c-4.4,0.2-6.8,1.6-9.1,2.8c-0.7,0.4-1.5,0.8-2.2,1.1c-0.3,0.1-0.4,0.4-0.2,0.7
		c0.1,0.2,0.3,0.3,0.5,0.3c0.1,0,0.1,0,0.2,0c0.8-0.4,1.6-0.8,2.3-1.2c2.4-1.3,4.6-2.5,8.7-2.7c0.3,0,0.5-0.3,0.5-0.5
		C125.1,122.6,124.9,122.4,124.6,122.4z"/>
	<path class="st0" d="M167.5,123.3l0.2,0c1,0,1.9,0,2.7,0.1c0,0,0,0,0.1,0c0.3,0,0.5-0.2,0.5-0.4c0-0.3-0.2-0.5-0.4-0.6
		c-0.9-0.1-1.8-0.2-2.8-0.2l-0.2,0c-0.3,0-0.5,0.2-0.5,0.5C167,123.1,167.3,123.3,167.5,123.3C167.5,123.3,167.5,123.3,167.5,123.3z
		"/>
	<path class="st0" d="M135,125.4c0.1,0,0.2,0.1,0.2,0.1c0.2,0,0.4-0.1,0.4-0.3c0.1-0.2,0-0.5-0.2-0.7c-1.1-0.5-1.9-0.9-2.8-1.2
		c-0.3-0.1-0.5,0.1-0.6,0.3c-0.1,0.3,0.1,0.5,0.3,0.6C133.2,124.6,134,124.9,135,125.4z"/>
	<path class="st0" d="M153.4,137.6c-0.3,0.1-0.6,0.2-0.9,0.3c-0.3,0.1-0.4,0.3-0.4,0.6c0.1,0.2,0.3,0.4,0.5,0.4c0,0,0.1,0,0.1,0
		c0.3-0.1,0.7-0.2,1-0.3c0.3-0.1,0.4-0.4,0.3-0.6C153.9,137.7,153.7,137.5,153.4,137.6z"/>
	<path class="st0" d="M148.6,138.4c-0.9,0-2,0-2.9,0c-0.3,0-0.5,0.2-0.5,0.5c0,0.3,0.2,0.5,0.5,0.5c0.6,0,1.2,0.1,1.9,0.1
		c0.4,0,0.8,0,1.2,0c0.3,0,0.5-0.2,0.5-0.5C149.1,138.6,148.9,138.4,148.6,138.4z"/>
	<path class="st0" d="M138.3,136.2c-0.3-0.2-0.6-0.3-0.9-0.5c-2.6-1.4-5.3-2.9-10.6-2.9c-0.3,0-0.5,0.2-0.5,0.5s0.2,0.5,0.5,0.5
		c5.1,0,7.6,1.3,10.2,2.8c0.3,0.2,0.6,0.3,0.9,0.5c0.1,0,0.2,0.1,0.2,0.1c0.2,0,0.4-0.1,0.4-0.3
		C138.6,136.6,138.5,136.3,138.3,136.2z"/>
	<path class="st0" d="M173.7,133.4c-1.6-0.4-3.3-0.6-5.3-0.6c0,0,0,0,0,0c-2.6,0-4.7,0.3-6.8,1.1c-0.3,0.1-0.4,0.4-0.3,0.6
		c0.1,0.2,0.3,0.3,0.5,0.3c0.1,0,0.1,0,0.2,0c1.9-0.7,4-1,6.4-1c0,0,0,0,0,0c1.9,0,3.6,0.2,5.1,0.6c0.3,0.1,0.5-0.1,0.6-0.4
		C174.1,133.7,173.9,133.5,173.7,133.4z"/>
	<path class="st0" d="M188.5,138.4c-0.3,0-0.7,0-1,0c-0.3,0-0.5,0.2-0.5,0.5s0.2,0.5,0.5,0.5c0.3,0,0.7,0,1,0c0,0,0,0,0,0
		c0.3,0,0.5-0.2,0.5-0.5C189,138.7,188.8,138.4,188.5,138.4z"/>
	<path class="st0" d="M208.5,132.8c-4.4,0.2-6.8,1.6-9.1,2.8c-0.7,0.4-1.4,0.8-2.2,1.1c-0.3,0.1-0.4,0.4-0.2,0.7
		c0.1,0.2,0.3,0.3,0.5,0.3c0.1,0,0.1,0,0.2,0c0.8-0.4,1.6-0.8,2.3-1.2c2.4-1.3,4.6-2.5,8.7-2.7c0.3,0,0.5-0.3,0.5-0.5
		C209,133,208.7,132.8,208.5,132.8z"/>
	<path class="st0" d="M183.7,137.8c-0.9-0.3-1.8-0.6-2.7-1c-0.3-0.1-0.5,0-0.7,0.2c-0.1,0.2,0,0.5,0.2,0.7c1,0.5,1.9,0.8,2.9,1.1
		c0,0,0.1,0,0.1,0c0.2,0,0.4-0.1,0.5-0.4C184.2,138.1,184,137.8,183.7,137.8z"/>
	<path class="st0" d="M85.8,132.8c-2.6,0-4.7,0.3-6.8,1.1c-0.3,0.1-0.4,0.4-0.3,0.6c0.1,0.2,0.3,0.3,0.5,0.3c0.1,0,0.1,0,0.2,0
		c1.9-0.7,4-1,6.4-1c0,0,0,0,0,0c0.3,0,0.5-0.2,0.5-0.5C86.3,133,86.1,132.8,85.8,132.8z"/>
	<path class="st0" d="M55.8,136.2c-0.3-0.2-0.6-0.3-0.9-0.5c-2.6-1.4-5.3-2.9-10.6-2.9c-0.3,0-0.5,0.2-0.5,0.5s0.2,0.5,0.5,0.5
		c5.1,0,7.6,1.3,10.2,2.8c0.3,0.2,0.6,0.3,0.9,0.5c0.1,0,0.2,0.1,0.2,0.1c0.2,0,0.4-0.1,0.4-0.3C56.1,136.6,56,136.3,55.8,136.2z"/>
	<path class="st0" d="M70.9,137.6c-0.3,0.1-0.6,0.2-0.9,0.3c-0.3,0.1-0.4,0.3-0.4,0.6c0.1,0.2,0.3,0.4,0.5,0.4c0,0,0.1,0,0.1,0
		c0.3-0.1,0.7-0.2,1-0.3c0.3-0.1,0.4-0.4,0.3-0.6C71.4,137.7,71.2,137.5,70.9,137.6z"/>
	<path class="st0" d="M66.1,138.4c-0.9,0-2,0-2.9,0c-0.3,0-0.5,0.2-0.5,0.5c0,0.3,0.2,0.5,0.5,0.5c0.6,0,1.2,0.1,1.9,0.1
		c0.4,0,0.8,0,1.2,0c0.3,0,0.5-0.2,0.5-0.5C66.6,138.6,66.4,138.4,66.1,138.4z"/>
	<path class="st0" d="M272.2,118.5c-5,0-7.4-1.3-9.9-2.7c-2.7-1.4-5.4-2.9-10.9-2.9c-0.4,0-0.7,0-1.1,0c-1.5,0.1-2.8,0.2-4,0.5
		c-0.7,0.2-1.3,0.4-1.9,0.6c-1.5,0.5-2.7,1.2-3.9,1.8c-2.6,1.4-5,2.7-9.9,2.7c-5,0-7.4-1.3-9.9-2.7c-2.7-1.4-5.4-2.9-10.9-2.9
		c-5.5,0-8.2,1.5-10.9,2.9c-2.6,1.4-5,2.7-9.9,2.7c-0.9,0-1.7,0-2.4-0.1c-1.4-0.2-2.6-0.4-3.7-0.8c-1.4-0.5-2.6-1.1-3.8-1.8
		c-0.5-0.3-1-0.5-1.5-0.8c-1.8-0.9-3.9-1.8-7-2c-0.7-0.1-1.5-0.1-2.4-0.1c-0.6,0-1.1,0-1.7,0.1c-0.7,0-1.4,0.1-2,0.2
		c-3.2,0.5-5.2,1.6-7.2,2.7c-2.6,1.4-5,2.7-9.9,2.7c-4.7,0-7.1-1.2-9.5-2.5c-0.1-0.1-0.3-0.1-0.4-0.2c-2.7-1.4-5.4-2.9-10.9-2.9
		c0,0,0,0,0,0c0,0,0,0,0,0c-5.5,0-8.2,1.5-10.9,2.9c-1.6,0.9-3.2,1.7-5.3,2.2c-1.3,0.3-2.8,0.5-4.6,0.5c-5,0-7.4-1.3-9.9-2.7
		c-1.6-0.9-3.3-1.8-5.6-2.3c-0.6-0.2-1.3-0.3-2.1-0.4c-1-0.1-2-0.2-3.2-0.2c-0.4,0-0.7,0-1,0c-4,0.1-6.5,1.1-8.6,2.3
		c-0.4,0.2-0.8,0.4-1.3,0.7c-0.8,0.4-1.5,0.8-2.3,1.2c-0.6,0.3-1.2,0.5-1.9,0.7c-1.5,0.5-3.3,0.8-5.8,0.8c-5,0-7.4-1.3-9.9-2.7
		c-2.7-1.4-5.4-2.9-10.9-2.9c-5.2,0-7.9,1.3-10.5,2.7c-0.1,0.1-0.3,0.2-0.4,0.2c-0.5,0.3-1.1,0.6-1.6,0.9c-1.1,0.6-2.4,1.1-3.9,1.4
		c-1.2,0.3-2.7,0.4-4.4,0.4c-5,0-7.4-1.3-9.9-2.7c-2.7-1.4-5.4-2.9-10.9-2.9c-0.6,0-1,0.4-1,1s0.4,1,1,1c5,0,7.4,1.3,9.9,2.7
		c2.7,1.4,5.4,2.9,10.9,2.9s8.2-1.5,10.9-2.9c2.6-1.4,5-2.7,9.9-2.7c5,0,7.4,1.3,9.9,2.7c2.7,1.4,5.4,2.9,10.9,2.9
		c5.5,0,8.2-1.5,10.9-2.9c2.6-1.4,5-2.7,9.9-2.7s7.4,1.3,9.9,2.7c2.7,1.4,5.4,2.9,10.9,2.9c5.5,0,8.2-1.5,10.9-2.9
		c2.6-1.4,5-2.7,9.9-2.7s7.4,1.3,9.9,2.7c2.7,1.4,5.4,2.9,10.9,2.9c0,0,0,0,0,0c0,0,0,0,0,0c5.5,0,8.2-1.5,10.9-2.9
		c2.6-1.4,5-2.7,9.9-2.7c5,0,7.4,1.3,9.9,2.7c2.7,1.4,5.4,2.9,10.9,2.9c5.5,0,8.2-1.5,10.9-2.9c2.6-1.4,5-2.7,9.9-2.7
		s7.4,1.3,9.9,2.7c2.7,1.4,5.4,2.9,10.9,2.9c5.5,0,8.2-1.5,10.9-2.9c2.6-1.4,5-2.7,9.9-2.7s7.4,1.3,9.9,2.7
		c2.7,1.4,5.4,2.9,10.9,2.9c0.6,0,1-0.4,1-1S272.7,118.5,272.2,118.5z"/>
</g>
</svg>
