<svg xmlns="http://www.w3.org/2000/svg" width="15" height="15" viewBox="0 0 15 15">
  <path fill="#38383D" fill-rule="evenodd" d="M7.5,7.5 C9.571875,7.5 11.25,5.821875 11.25,3.75 C11.25,1.678125 9.571875,0 7.5,0 C5.428125,0 3.75,1.678125 3.75,3.75 C3.75,5.821875 5.428125,7.5 7.5,7.5 L7.5,7.5 Z M0,12.8125 L0,13 C1.3527075e-16,14.1045695 0.8954305,15 2,15 L13,15 C14.1045695,15 15,14.1045695 15,13 L15,12.8125 C15,9.903125 10.003125,8.4375 7.5,8.4375 C4.996875,8.4375 0,9.903125 0,12.8125 Z"/>
</svg>
