<?xml version="1.0" encoding="UTF-8"?>
<svg width="16px" height="16px" viewBox="0 0 16 16" version="1.1" xmlns="http://www.w3.org/2000/svg" xmlns:xlink="http://www.w3.org/1999/xlink">
    <!-- Generator: Sketch 46.2 (44496) - http://www.bohemiancoding.com/sketch -->
    <title>Browser / Icon - Locked Copy</title>
    <desc>Created with Sketch.</desc>
    <defs></defs>
    <g id="Symbols" stroke="none" stroke-width="1" fill="none" fill-rule="evenodd">
        <g id="Browser-/-Icon---Locked-Copy" fill-rule="nonzero" fill="#4A4A4F">
            <g id="Icon" transform="translate(0.000000, 1.000000)">
                <g id="lockbox-icon">
                    <path d="M7.09372517,7.15654297 C6.44461725,6.82486814 6,6.14802227 6,5.36696864 C6,4.25855047 6.8954305,3.36 8,3.36 C9.1045695,3.36 10,4.25855047 10,5.36696864 C10,6.14807806 9.55531922,6.82496484 8.90613572,7.15661405 L9.58009769,9.92070365 C9.66868293,10.2750446 9.45324536,10.6341072 9.09890443,10.7226924 C9.04644679,10.7358068 8.99257878,10.7424383 8.93850668,10.7424383 L7.06133688,10.7424383 C6.69609061,10.7424383 6.4,10.4463477 6.4,10.0811014 C6.4,10.0270293 6.40663146,9.97316129 6.41974587,9.92070365 L7.09372517,7.15654297 Z M13,2.22044605e-16 C14.6568542,2.22044605e-16 16,1.34314575 16,3 L16,12 C16,13.1045695 15.1045695,14 14,14 L3,14 C1.34314575,14 2.02906125e-16,12.6568542 0,11 L0,3 C2.02906125e-16,1.34314575 1.34314575,-2.22044605e-16 3,2.22044605e-16 L13,2.22044605e-16 Z M11.75,2 L4.25,2 C3.00735931,2 2,2.95938982 2,4.14285714 L2,9.85714286 C2,11.0406102 3.00735931,12 4.25,12 L12.5,12 C13.3284271,12 14,11.3604068 14,10.5714286 L14,4.14285714 C14,2.95938982 12.9926407,2 11.75,2 Z" id="Combined-Shape"></path>
                </g>
            </g>
        </g>
    </g>
</svg>