<?xml version="1.0" encoding="UTF-8"?>
<svg width="26px" height="26px" viewBox="0 0 26 26" version="1.1" xmlns="http://www.w3.org/2000/svg" xmlns:xlink="http://www.w3.org/1999/xlink">
    <!-- Generator: Sketch 46.2 (44496) - http://www.bohemiancoding.com/sketch -->
    <title>Browser / Icon</title>
    <desc>Created with Sketch.</desc>
    <defs></defs>
    <g id="Symbols" stroke="none" stroke-width="1" fill="none" fill-rule="evenodd">
        <g id="Browser-/-Icon" fill-rule="nonzero" fill="#4A4A4F">
            <g id="Icon" transform="translate(5.000000, 5.000000)">
                <g id="lockbox-icon">
                    <path d="M3.6,0.962566845 L3.6,3.05893249 C2.67426529,3.32524419 2,4.14568021 2,5.11650115 L2,10.8460657 C2,12.0326974 3.00735931,12.9946524 4.25,12.9946524 L12.5,12.9946524 C13.3284271,12.9946524 14,12.353349 14,11.5622613 L14,5.11650115 C14,4.14568021 13.3257347,3.32524419 12.4,3.05893249 L12.4,0.962566845 L13,0.962566845 C14.6568542,0.962566845 16,2.30930389 16,3.97058824 L16,12.9946524 C16,14.1021753 15.1045695,15 14,15 L3,15 C1.34314575,15 2.02906125e-16,13.653263 0,11.9919786 L0,3.97058824 C2.02906125e-16,2.30930389 1.34314575,0.962566845 3,0.962566845 L3.6,0.962566845 Z M7.09372517,8.13824496 C6.44461725,7.80568329 6,7.12702767 6,6.34388567 C6,5.23250381 6.8954305,4.3315508 8,4.3315508 C9.1045695,4.3315508 10,5.23250381 10,6.34388567 C10,7.12708362 9.55531922,7.80578025 8.90613572,8.13831623 L9.58009769,10.9097964 C9.66868293,11.2650848 9.45324536,11.6251075 9.09890443,11.7139296 C9.04644679,11.727079 8.99257878,11.7337282 8.93850668,11.7337282 L7.06133688,11.7337282 C6.69609061,11.7337282 6.4,11.4368459 6.4,11.0706231 C6.4,11.0164064 6.40663146,10.9623943 6.41974587,10.9097964 L7.09372517,8.13824496 Z" id="Combined-Shape"></path>
                </g>
            </g>
        </g>
    </g>
</svg>