<svg xmlns="http://www.w3.org/2000/svg" width="16" height="16" viewBox="0 0 16 16">
  <path fill="#38383D" fill-rule="evenodd" d="M6.51444444,10.7922222 L7.61111111,11.8888889 L11.5,8 L7.61111111,4.11111111 L6.51444444,5.20777778 L8.52111111,7.22222222 L1,7.22222222 L1,8.77777778 L8.52111111,8.77777778 L6.51444444,10.7922222 L6.51444444,10.7922222 Z M13.4444444,1 L2.55555556,1 C1.69222222,1 1,1.7 1,2.55555556 L1,5.66666667 L2.55555556,5.66666667 L2.55555556,2.55555556 L13.4444444,2.55555556 L13.4444444,13.4444444 L2.55555556,13.4444444 L2.55555556,10.3333333 L1,10.3333333 L1,13.4444444 C1,14.3 1.69222222,15 2.55555556,15 L13.4444444,15 C14.3,15 15,14.3 15,13.4444444 L15,2.55555556 C15,1.7 14.3,1 13.4444444,1 L13.4444444,1 Z" transform="matrix(-1 0 0 1 16 0)"/>
</svg>
