<svg xmlns="http://www.w3.org/2000/svg" width="15" height="15" viewBox="0 0 15 15">
  <path fill="#38383D" fill-rule="evenodd" d="M5.90833333,10.4916667 L7.08333333,11.6666667 L11.25,7.5 L7.08333333,3.33333333 L5.90833333,4.50833333 L8.05833333,6.66666667 L0,6.66666667 L0,8.33333333 L8.05833333,8.33333333 L5.90833333,10.4916667 L5.90833333,10.4916667 Z M13.3333333,0 L1.66666667,0 C0.741666667,0 0,0.75 0,1.66666667 L0,5 L1.66666667,5 L1.66666667,1.66666667 L13.3333333,1.66666667 L13.3333333,13.3333333 L1.66666667,13.3333333 L1.66666667,10 L0,10 L0,13.3333333 C0,14.25 0.741666667,15 1.66666667,15 L13.3333333,15 C14.25,15 15,14.25 15,13.3333333 L15,1.66666667 C15,0.75 14.25,0 13.3333333,0 L13.3333333,0 Z" transform="matrix(-1 0 0 1 15 0)"/>
</svg>
